<?xml version="1.0" encoding="utf-8" standalone="no"?>
<!DOCTYPE svg PUBLIC "-//W3C//DTD SVG 1.1//EN"
  "http://www.w3.org/Graphics/SVG/1.1/DTD/svg11.dtd">
<!-- Created with matplotlib (https://matplotlib.org/) -->
<svg height="456.479375pt" version="1.1" viewBox="0 0 886.324219 456.479375" width="886.324219pt" xmlns="http://www.w3.org/2000/svg" xmlns:xlink="http://www.w3.org/1999/xlink">
 <defs>
  <style type="text/css">
*{stroke-linecap:butt;stroke-linejoin:round;}
  </style>
 </defs>
 <g id="figure_1">
  <g id="patch_1">
   <path d="M 0 456.479375 
L 886.324219 456.479375 
L 886.324219 0 
L 0 0 
z
" style="fill:#ffffff;"/>
  </g>
  <g id="axes_1">
   <g id="patch_2">
    <path d="M 45.724219 438.48 
L 882.724219 438.48 
L 882.724219 3.6 
L 45.724219 3.6 
z
" style="fill:#ffffff;"/>
   </g>
   <g id="patch_3">
    <path clip-path="url(#p3de3031d1c)" d="M 83.769673 438.48 
L 94.797341 438.48 
L 94.797341 438.287401 
L 83.769673 438.287401 
z
" style="fill:#0c5da5;"/>
   </g>
   <g id="patch_4">
    <path clip-path="url(#p3de3031d1c)" d="M 138.908013 438.48 
L 149.935681 438.48 
L 149.935681 438.264129 
L 138.908013 438.264129 
z
" style="fill:#0c5da5;"/>
   </g>
   <g id="patch_5">
    <path clip-path="url(#p3de3031d1c)" d="M 194.046353 438.48 
L 205.074021 438.48 
L 205.074021 437.973596 
L 194.046353 437.973596 
z
" style="fill:#0c5da5;"/>
   </g>
   <g id="patch_6">
    <path clip-path="url(#p3de3031d1c)" d="M 249.184693 438.48 
L 260.212361 438.48 
L 260.212361 437.575643 
L 249.184693 437.575643 
z
" style="fill:#0c5da5;"/>
   </g>
   <g id="patch_7">
    <path clip-path="url(#p3de3031d1c)" d="M 304.323033 438.48 
L 315.350701 438.48 
L 315.350701 437.749022 
L 304.323033 437.749022 
z
" style="fill:#0c5da5;"/>
   </g>
   <g id="patch_8">
    <path clip-path="url(#p3de3031d1c)" d="M 359.461373 438.48 
L 370.489041 438.48 
L 370.489041 437.019564 
L 359.461373 437.019564 
z
" style="fill:#0c5da5;"/>
   </g>
   <g id="patch_9">
    <path clip-path="url(#p3de3031d1c)" d="M 414.599713 438.48 
L 425.627381 438.48 
L 425.627381 436.58698 
L 414.599713 436.58698 
z
" style="fill:#0c5da5;"/>
   </g>
   <g id="patch_10">
    <path clip-path="url(#p3de3031d1c)" d="M 469.738053 438.48 
L 480.765721 438.48 
L 480.765721 434.877907 
L 469.738053 434.877907 
z
" style="fill:#0c5da5;"/>
   </g>
   <g id="patch_11">
    <path clip-path="url(#p3de3031d1c)" d="M 524.876393 438.48 
L 535.904061 438.48 
L 535.904061 436.943522 
L 524.876393 436.943522 
z
" style="fill:#0c5da5;"/>
   </g>
   <g id="patch_12">
    <path clip-path="url(#p3de3031d1c)" d="M 580.014733 438.48 
L 591.042401 438.48 
L 591.042401 371.96626 
L 580.014733 371.96626 
z
" style="fill:#0c5da5;"/>
   </g>
   <g id="patch_13">
    <path clip-path="url(#p3de3031d1c)" d="M 635.153073 438.48 
L 646.18074 438.48 
L 646.18074 262.962558 
L 635.153073 262.962558 
z
" style="fill:#0c5da5;"/>
   </g>
   <g id="patch_14">
    <path clip-path="url(#p3de3031d1c)" d="M 690.291412 438.48 
L 701.31908 438.48 
L 701.31908 246.442221 
L 690.291412 246.442221 
z
" style="fill:#0c5da5;"/>
   </g>
   <g id="patch_15">
    <path clip-path="url(#p3de3031d1c)" d="M 745.429752 438.48 
L 756.45742 438.48 
L 756.45742 36.719426 
L 745.429752 36.719426 
z
" style="fill:#0c5da5;"/>
   </g>
   <g id="patch_16">
    <path clip-path="url(#p3de3031d1c)" d="M 800.568092 438.48 
L 811.59576 438.48 
L 811.59576 36.126728 
L 800.568092 36.126728 
z
" style="fill:#0c5da5;"/>
   </g>
   <g id="patch_17">
    <path clip-path="url(#p3de3031d1c)" d="M 94.797341 438.48 
L 105.825009 438.48 
L 105.825009 438.157744 
L 94.797341 438.157744 
z
" style="fill:#00b945;"/>
   </g>
   <g id="patch_18">
    <path clip-path="url(#p3de3031d1c)" d="M 149.935681 438.48 
L 160.963349 438.48 
L 160.963349 438.051606 
L 149.935681 438.051606 
z
" style="fill:#00b945;"/>
   </g>
   <g id="patch_19">
    <path clip-path="url(#p3de3031d1c)" d="M 205.074021 438.48 
L 216.101689 438.48 
L 216.101689 437.788521 
L 205.074021 437.788521 
z
" style="fill:#00b945;"/>
   </g>
   <g id="patch_20">
    <path clip-path="url(#p3de3031d1c)" d="M 260.212361 438.48 
L 271.240029 438.48 
L 271.240029 437.42704 
L 260.212361 437.42704 
z
" style="fill:#00b945;"/>
   </g>
   <g id="patch_21">
    <path clip-path="url(#p3de3031d1c)" d="M 315.350701 438.48 
L 326.378369 438.48 
L 326.378369 437.65232 
L 315.350701 437.65232 
z
" style="fill:#00b945;"/>
   </g>
   <g id="patch_22">
    <path clip-path="url(#p3de3031d1c)" d="M 370.489041 438.48 
L 381.516709 438.48 
L 381.516709 437.353445 
L 370.489041 437.353445 
z
" style="fill:#00b945;"/>
   </g>
   <g id="patch_23">
    <path clip-path="url(#p3de3031d1c)" d="M 425.627381 438.48 
L 436.655049 438.48 
L 436.655049 436.30951 
L 425.627381 436.30951 
z
" style="fill:#00b945;"/>
   </g>
   <g id="patch_24">
    <path clip-path="url(#p3de3031d1c)" d="M 480.765721 438.48 
L 491.793389 438.48 
L 491.793389 435.297421 
L 480.765721 435.297421 
z
" style="fill:#00b945;"/>
   </g>
   <g id="patch_25">
    <path clip-path="url(#p3de3031d1c)" d="M 535.904061 438.48 
L 546.931729 438.48 
L 546.931729 437.156799 
L 535.904061 437.156799 
z
" style="fill:#00b945;"/>
   </g>
   <g id="patch_26">
    <path clip-path="url(#p3de3031d1c)" d="M 591.042401 438.48 
L 602.070069 438.48 
L 602.070069 300.580367 
L 591.042401 300.580367 
z
" style="fill:#00b945;"/>
   </g>
   <g id="patch_27">
    <path clip-path="url(#p3de3031d1c)" d="M 646.18074 438.48 
L 657.208408 438.48 
L 657.208408 167.754227 
L 646.18074 167.754227 
z
" style="fill:#00b945;"/>
   </g>
   <g id="patch_28">
    <path clip-path="url(#p3de3031d1c)" d="M 701.31908 438.48 
L 712.346748 438.48 
L 712.346748 225.834665 
L 701.31908 225.834665 
z
" style="fill:#00b945;"/>
   </g>
   <g id="patch_29">
    <path clip-path="url(#p3de3031d1c)" d="M 756.45742 438.48 
L 767.485088 438.48 
L 767.485088 68.204564 
L 756.45742 68.204564 
z
" style="fill:#00b945;"/>
   </g>
   <g id="patch_30">
    <path clip-path="url(#p3de3031d1c)" d="M 811.59576 438.48 
L 822.623428 438.48 
L 822.623428 191.926592 
L 811.59576 191.926592 
z
" style="fill:#00b945;"/>
   </g>
   <g id="patch_31">
    <path clip-path="url(#p3de3031d1c)" d="M 105.825009 438.48 
L 116.852677 438.48 
L 116.852677 438.321915 
L 105.825009 438.321915 
z
" style="fill:#ff9500;"/>
   </g>
   <g id="patch_32">
    <path clip-path="url(#p3de3031d1c)" d="M 160.963349 438.48 
L 171.991017 438.48 
L 171.991017 438.32227 
L 160.963349 438.32227 
z
" style="fill:#ff9500;"/>
   </g>
   <g id="patch_33">
    <path clip-path="url(#p3de3031d1c)" d="M 216.101689 438.48 
L 227.129357 438.48 
L 227.129357 437.86705 
L 216.101689 437.86705 
z
" style="fill:#ff9500;"/>
   </g>
   <g id="patch_34">
    <path clip-path="url(#p3de3031d1c)" d="M 271.240029 438.48 
L 282.267697 438.48 
L 282.267697 437.440644 
L 271.240029 437.440644 
z
" style="fill:#ff9500;"/>
   </g>
   <g id="patch_35">
    <path clip-path="url(#p3de3031d1c)" d="M 326.378369 438.48 
L 337.406037 438.48 
L 337.406037 437.571537 
L 326.378369 437.571537 
z
" style="fill:#ff9500;"/>
   </g>
   <g id="patch_36">
    <path clip-path="url(#p3de3031d1c)" d="M 381.516709 438.48 
L 392.544377 438.48 
L 392.544377 437.480024 
L 381.516709 437.480024 
z
" style="fill:#ff9500;"/>
   </g>
   <g id="patch_37">
    <path clip-path="url(#p3de3031d1c)" d="M 436.655049 438.48 
L 447.682717 438.48 
L 447.682717 437.332892 
L 436.655049 437.332892 
z
" style="fill:#ff9500;"/>
   </g>
   <g id="patch_38">
    <path clip-path="url(#p3de3031d1c)" d="M 491.793389 438.48 
L 502.821057 438.48 
L 502.821057 436.397232 
L 491.793389 436.397232 
z
" style="fill:#ff9500;"/>
   </g>
   <g id="patch_39">
    <path clip-path="url(#p3de3031d1c)" d="M 546.931729 438.48 
L 557.959397 438.48 
L 557.959397 437.643152 
L 546.931729 437.643152 
z
" style="fill:#ff9500;"/>
   </g>
   <g id="patch_40">
    <path clip-path="url(#p3de3031d1c)" d="M 602.070069 438.48 
L 613.097737 438.48 
L 613.097737 350.517362 
L 602.070069 350.517362 
z
" style="fill:#ff9500;"/>
   </g>
   <g id="patch_41">
    <path clip-path="url(#p3de3031d1c)" d="M 657.208408 438.48 
L 668.236076 438.48 
L 668.236076 232.652281 
L 657.208408 232.652281 
z
" style="fill:#ff9500;"/>
   </g>
   <g id="patch_42">
    <path clip-path="url(#p3de3031d1c)" d="M 712.346748 438.48 
L 723.374416 438.48 
L 723.374416 222.433852 
L 712.346748 222.433852 
z
" style="fill:#ff9500;"/>
   </g>
   <g id="patch_43">
    <path clip-path="url(#p3de3031d1c)" d="M 767.485088 438.48 
L 778.512756 438.48 
L 778.512756 24.308571 
L 767.485088 24.308571 
z
" style="fill:#ff9500;"/>
   </g>
   <g id="patch_44">
    <path clip-path="url(#p3de3031d1c)" d="M 822.623428 438.48 
L 833.651096 438.48 
L 833.651096 121.206075 
L 822.623428 121.206075 
z
" style="fill:#ff9500;"/>
   </g>
   <g id="patch_45">
    <path clip-path="url(#p3de3031d1c)" d="M 116.852677 438.48 
L 127.880345 438.48 
L 127.880345 437.990868 
L 116.852677 437.990868 
z
" style="fill:#ff2c00;"/>
   </g>
   <g id="patch_46">
    <path clip-path="url(#p3de3031d1c)" d="M 171.991017 438.48 
L 183.018685 438.48 
L 183.018685 437.933452 
L 171.991017 437.933452 
z
" style="fill:#ff2c00;"/>
   </g>
   <g id="patch_47">
    <path clip-path="url(#p3de3031d1c)" d="M 227.129357 438.48 
L 238.157025 438.48 
L 238.157025 437.266098 
L 227.129357 437.266098 
z
" style="fill:#ff2c00;"/>
   </g>
   <g id="patch_48">
    <path clip-path="url(#p3de3031d1c)" d="M 282.267697 438.48 
L 293.295365 438.48 
L 293.295365 436.57526 
L 282.267697 436.57526 
z
" style="fill:#ff2c00;"/>
   </g>
   <g id="patch_49">
    <path clip-path="url(#p3de3031d1c)" d="M 337.406037 438.48 
L 348.433705 438.48 
L 348.433705 436.956593 
L 337.406037 436.956593 
z
" style="fill:#ff2c00;"/>
   </g>
   <g id="patch_50">
    <path clip-path="url(#p3de3031d1c)" d="M 392.544377 438.48 
L 403.572045 438.48 
L 403.572045 436.431547 
L 392.544377 436.431547 
z
" style="fill:#ff2c00;"/>
   </g>
   <g id="patch_51">
    <path clip-path="url(#p3de3031d1c)" d="M 447.682717 438.48 
L 458.710385 438.48 
L 458.710385 435.688877 
L 447.682717 435.688877 
z
" style="fill:#ff2c00;"/>
   </g>
   <g id="patch_52">
    <path clip-path="url(#p3de3031d1c)" d="M 502.821057 438.48 
L 513.848725 438.48 
L 513.848725 433.264486 
L 502.821057 433.264486 
z
" style="fill:#ff2c00;"/>
   </g>
   <g id="patch_53">
    <path clip-path="url(#p3de3031d1c)" d="M 557.959397 438.48 
L 568.987065 438.48 
L 568.987065 436.182068 
L 557.959397 436.182068 
z
" style="fill:#ff2c00;"/>
   </g>
   <g id="patch_54">
    <path clip-path="url(#p3de3031d1c)" d="M 613.097737 438.48 
L 624.125405 438.48 
L 624.125405 326.969061 
L 613.097737 326.969061 
z
" style="fill:#ff2c00;"/>
   </g>
   <g id="patch_55">
    <path clip-path="url(#p3de3031d1c)" d="M 668.236076 438.48 
L 679.263744 438.48 
L 679.263744 205.354138 
L 668.236076 205.354138 
z
" style="fill:#ff2c00;"/>
   </g>
   <g id="patch_56">
    <path clip-path="url(#p3de3031d1c)" d="M 723.374416 438.48 
L 734.402084 438.48 
L 734.402084 233.37802 
L 723.374416 233.37802 
z
" style="fill:#ff2c00;"/>
   </g>
   <g id="patch_57">
    <path clip-path="url(#p3de3031d1c)" d="M 778.512756 438.48 
L 789.540424 438.48 
L 789.540424 89.072059 
L 778.512756 89.072059 
z
" style="fill:#ff2c00;"/>
   </g>
   <g id="patch_58">
    <path clip-path="url(#p3de3031d1c)" d="M 833.651096 438.48 
L 844.678764 438.48 
L 844.678764 106.432356 
L 833.651096 106.432356 
z
" style="fill:#ff2c00;"/>
   </g>
   <g id="matplotlib.axis_1">
    <g id="xtick_1">
     <g id="line2d_1">
      <defs>
       <path d="M 0 0 
L 0 -3 
" id="m3694619250" style="stroke:#000000;stroke-width:0.5;"/>
      </defs>
      <g>
       <use style="stroke:#000000;stroke-width:0.5;" x="100.311175" xlink:href="#m3694619250" y="438.48"/>
      </g>
     </g>
     <g id="line2d_2">
      <defs>
       <path d="M 0 0 
L 0 3 
" id="m0c716502e3" style="stroke:#000000;stroke-width:0.5;"/>
      </defs>
      <g>
       <use style="stroke:#000000;stroke-width:0.5;" x="100.311175" xlink:href="#m0c716502e3" y="3.6"/>
      </g>
     </g>
     <g id="text_1">
      <!-- USDEUR -->
      <defs>
       <path d="M 47.703125 64.40625 
L 47.703125 66.21875 
L 71.140625 66.21875 
L 71.140625 64.40625 
L 68.65625 64.40625 
Q 64.75 64.40625 62.640625 61.140625 
Q 61.625 59.625 61.625 54.109375 
L 61.625 27.25 
Q 61.625 17.28125 59.640625 11.78125 
Q 57.671875 6.296875 51.875 2.359375 
Q 46.09375 -1.5625 36.140625 -1.5625 
Q 25.296875 -1.5625 19.671875 2.1875 
Q 14.0625 5.953125 11.71875 12.3125 
Q 10.15625 16.65625 10.15625 28.609375 
L 10.15625 54.5 
Q 10.15625 60.59375 8.46875 62.5 
Q 6.78125 64.40625 3.03125 64.40625 
L 0.53125 64.40625 
L 0.53125 66.21875 
L 29.15625 66.21875 
L 29.15625 64.40625 
L 26.609375 64.40625 
Q 22.515625 64.40625 20.75 61.8125 
Q 19.53125 60.0625 19.53125 54.5 
L 19.53125 25.640625 
Q 19.53125 21.78125 20.234375 16.796875 
Q 20.953125 11.8125 22.796875 9.03125 
Q 24.65625 6.25 28.140625 4.4375 
Q 31.640625 2.640625 36.71875 2.640625 
Q 43.21875 2.640625 48.34375 5.46875 
Q 53.46875 8.296875 55.34375 12.71875 
Q 57.234375 17.140625 57.234375 27.6875 
L 57.234375 54.5 
Q 57.234375 60.6875 55.859375 62.25 
Q 53.953125 64.40625 50.203125 64.40625 
z
" id="TimesNewRomanPSMT-85"/>
       <path d="M 45.84375 67.71875 
L 45.84375 44.828125 
L 44.046875 44.828125 
Q 43.171875 51.421875 40.890625 55.328125 
Q 38.625 59.234375 34.421875 61.515625 
Q 30.21875 63.8125 25.734375 63.8125 
Q 20.65625 63.8125 17.328125 60.71875 
Q 14.015625 57.625 14.015625 53.65625 
Q 14.015625 50.640625 16.109375 48.140625 
Q 19.140625 44.484375 30.515625 38.375 
Q 39.796875 33.40625 43.1875 30.734375 
Q 46.578125 28.078125 48.40625 24.453125 
Q 50.25 20.84375 50.25 16.890625 
Q 50.25 9.375 44.40625 3.921875 
Q 38.578125 -1.515625 29.390625 -1.515625 
Q 26.515625 -1.515625 23.96875 -1.078125 
Q 22.46875 -0.828125 17.703125 0.703125 
Q 12.9375 2.25 11.671875 2.25 
Q 10.453125 2.25 9.734375 1.515625 
Q 9.03125 0.78125 8.6875 -1.515625 
L 6.890625 -1.515625 
L 6.890625 21.1875 
L 8.6875 21.1875 
Q 9.96875 14.0625 12.109375 10.515625 
Q 14.265625 6.984375 18.671875 4.640625 
Q 23.09375 2.296875 28.375 2.296875 
Q 34.46875 2.296875 38 5.515625 
Q 41.546875 8.734375 41.546875 13.140625 
Q 41.546875 15.578125 40.203125 18.0625 
Q 38.875 20.5625 36.03125 22.703125 
Q 34.125 24.171875 25.625 28.921875 
Q 17.140625 33.6875 13.546875 36.515625 
Q 9.96875 39.359375 8.109375 42.765625 
Q 6.25 46.1875 6.25 50.296875 
Q 6.25 57.421875 11.71875 62.5625 
Q 17.1875 67.71875 25.640625 67.71875 
Q 30.90625 67.71875 36.8125 65.140625 
Q 39.546875 63.921875 40.671875 63.921875 
Q 41.9375 63.921875 42.75 64.671875 
Q 43.5625 65.4375 44.046875 67.71875 
z
" id="TimesNewRomanPSMT-83"/>
       <path d="M 1.703125 0 
L 1.703125 1.8125 
L 4.203125 1.8125 
Q 8.40625 1.8125 10.15625 4.5 
Q 11.234375 6.109375 11.234375 11.71875 
L 11.234375 54.5 
Q 11.234375 60.6875 9.859375 62.25 
Q 7.953125 64.40625 4.203125 64.40625 
L 1.703125 64.40625 
L 1.703125 66.21875 
L 28.65625 66.21875 
Q 43.5 66.21875 51.234375 62.84375 
Q 58.984375 59.46875 63.6875 51.609375 
Q 68.40625 43.75 68.40625 33.453125 
Q 68.40625 19.625 60.015625 10.359375 
Q 50.59375 0 31.296875 0 
z
M 20.609375 4.78125 
Q 26.8125 3.421875 31 3.421875 
Q 42.328125 3.421875 49.796875 11.375 
Q 57.28125 19.34375 57.28125 32.953125 
Q 57.28125 46.6875 49.796875 54.59375 
Q 42.328125 62.5 30.609375 62.5 
Q 26.21875 62.5 20.609375 61.078125 
z
" id="TimesNewRomanPSMT-68"/>
       <path d="M 20.90625 62.59375 
L 20.90625 36.421875 
L 35.453125 36.421875 
Q 41.109375 36.421875 43.015625 38.140625 
Q 45.5625 40.375 45.84375 46.046875 
L 47.65625 46.046875 
L 47.65625 23 
L 45.84375 23 
Q 45.171875 27.828125 44.484375 29.203125 
Q 43.609375 30.90625 41.59375 31.875 
Q 39.59375 32.859375 35.453125 32.859375 
L 20.90625 32.859375 
L 20.90625 11.03125 
Q 20.90625 6.640625 21.296875 5.6875 
Q 21.6875 4.734375 22.65625 4.171875 
Q 23.640625 3.609375 26.375 3.609375 
L 37.59375 3.609375 
Q 43.21875 3.609375 45.75 4.390625 
Q 48.296875 5.171875 50.640625 7.46875 
Q 53.65625 10.5 56.84375 16.609375 
L 58.796875 16.609375 
L 53.078125 0 
L 2.046875 0 
L 2.046875 1.8125 
L 4.390625 1.8125 
Q 6.734375 1.8125 8.84375 2.9375 
Q 10.40625 3.71875 10.96875 5.28125 
Q 11.53125 6.84375 11.53125 11.671875 
L 11.53125 54.6875 
Q 11.53125 60.984375 10.25 62.453125 
Q 8.5 64.40625 4.390625 64.40625 
L 2.046875 64.40625 
L 2.046875 66.21875 
L 53.078125 66.21875 
L 53.8125 51.703125 
L 51.90625 51.703125 
Q 50.875 56.9375 49.625 58.890625 
Q 48.390625 60.84375 45.953125 61.859375 
Q 44 62.59375 39.0625 62.59375 
z
" id="TimesNewRomanPSMT-69"/>
       <path d="M 67.578125 0 
L 49.90625 0 
L 27.484375 30.953125 
Q 25 30.859375 23.4375 30.859375 
Q 22.796875 30.859375 22.0625 30.875 
Q 21.34375 30.90625 20.5625 30.953125 
L 20.5625 11.71875 
Q 20.5625 5.46875 21.921875 3.953125 
Q 23.78125 1.8125 27.484375 1.8125 
L 30.078125 1.8125 
L 30.078125 0 
L 1.703125 0 
L 1.703125 1.8125 
L 4.203125 1.8125 
Q 8.40625 1.8125 10.203125 4.546875 
Q 11.234375 6.0625 11.234375 11.71875 
L 11.234375 54.5 
Q 11.234375 60.75 9.859375 62.25 
Q 7.953125 64.40625 4.203125 64.40625 
L 1.703125 64.40625 
L 1.703125 66.21875 
L 25.828125 66.21875 
Q 36.375 66.21875 41.375 64.671875 
Q 46.390625 63.140625 49.875 59.015625 
Q 53.375 54.890625 53.375 49.171875 
Q 53.375 43.0625 49.390625 38.5625 
Q 45.40625 34.078125 37.0625 32.234375 
L 50.734375 13.234375 
Q 55.421875 6.6875 58.78125 4.53125 
Q 62.15625 2.390625 67.578125 1.8125 
z
M 20.5625 34.03125 
Q 21.484375 34.03125 22.171875 34 
Q 22.859375 33.984375 23.296875 33.984375 
Q 32.765625 33.984375 37.578125 38.078125 
Q 42.390625 42.1875 42.390625 48.53125 
Q 42.390625 54.734375 38.5 58.609375 
Q 34.625 62.5 28.21875 62.5 
Q 25.390625 62.5 20.5625 61.578125 
z
" id="TimesNewRomanPSMT-82"/>
      </defs>
      <g transform="translate(76.308363 450.3125)scale(0.12 -0.12)">
       <use xlink:href="#TimesNewRomanPSMT-85"/>
       <use x="72.216797" xlink:href="#TimesNewRomanPSMT-83"/>
       <use x="127.832031" xlink:href="#TimesNewRomanPSMT-68"/>
       <use x="200.048828" xlink:href="#TimesNewRomanPSMT-69"/>
       <use x="261.132812" xlink:href="#TimesNewRomanPSMT-85"/>
       <use x="333.349609" xlink:href="#TimesNewRomanPSMT-82"/>
      </g>
     </g>
    </g>
    <g id="xtick_2">
     <g id="line2d_3">
      <g>
       <use style="stroke:#000000;stroke-width:0.5;" x="155.449515" xlink:href="#m3694619250" y="438.48"/>
      </g>
     </g>
     <g id="line2d_4">
      <g>
       <use style="stroke:#000000;stroke-width:0.5;" x="155.449515" xlink:href="#m0c716502e3" y="3.6"/>
      </g>
     </g>
     <g id="text_2">
      <!-- USDJPY -->
      <defs>
       <path d="M 9.96875 64.40625 
L 9.96875 66.21875 
L 38.328125 66.21875 
L 38.328125 64.40625 
L 35.9375 64.40625 
Q 31.890625 64.40625 30.03125 62.015625 
Q 28.859375 60.453125 28.859375 54.5 
L 28.859375 22.125 
Q 28.859375 14.65625 27.21875 10.015625 
Q 25.59375 5.375 21.578125 1.921875 
Q 17.578125 -1.515625 11.921875 -1.515625 
Q 7.328125 -1.515625 4.6875 0.75 
Q 2.046875 3.03125 2.046875 5.953125 
Q 2.046875 8.34375 3.265625 9.578125 
Q 4.890625 11.078125 7.03125 11.078125 
Q 8.59375 11.078125 9.828125 10.046875 
Q 11.078125 9.03125 12.984375 4.59375 
Q 14.109375 1.953125 15.875 1.953125 
Q 17.1875 1.953125 18.328125 3.5625 
Q 19.484375 5.171875 19.484375 9.28125 
L 19.484375 54.5 
Q 19.484375 59.515625 18.84375 61.140625 
Q 18.359375 62.359375 16.796875 63.234375 
Q 14.703125 64.40625 12.359375 64.40625 
z
" id="TimesNewRomanPSMT-74"/>
       <path d="M 20.515625 31 
L 20.515625 11.71875 
Q 20.515625 5.46875 21.875 3.953125 
Q 23.734375 1.8125 27.484375 1.8125 
L 30.03125 1.8125 
L 30.03125 0 
L 1.65625 0 
L 1.65625 1.8125 
L 4.15625 1.8125 
Q 8.34375 1.8125 10.15625 4.546875 
Q 11.140625 6.0625 11.140625 11.71875 
L 11.140625 54.5 
Q 11.140625 60.75 9.8125 62.25 
Q 7.90625 64.40625 4.15625 64.40625 
L 1.65625 64.40625 
L 1.65625 66.21875 
L 25.921875 66.21875 
Q 34.8125 66.21875 39.9375 64.375 
Q 45.0625 62.546875 48.578125 58.203125 
Q 52.09375 53.859375 52.09375 47.90625 
Q 52.09375 39.796875 46.75 34.71875 
Q 41.40625 29.640625 31.640625 29.640625 
Q 29.25 29.640625 26.46875 29.984375 
Q 23.6875 30.328125 20.515625 31 
z
M 20.515625 33.796875 
Q 23.09375 33.296875 25.09375 33.046875 
Q 27.09375 32.8125 28.515625 32.8125 
Q 33.59375 32.8125 37.28125 36.734375 
Q 40.96875 40.671875 40.96875 46.921875 
Q 40.96875 51.21875 39.203125 54.90625 
Q 37.453125 58.59375 34.21875 60.421875 
Q 31 62.25 26.90625 62.25 
Q 24.421875 62.25 20.515625 61.328125 
z
" id="TimesNewRomanPSMT-80"/>
       <path d="M 47.65625 66.21875 
L 70.75 66.21875 
L 70.75 64.40625 
L 69.484375 64.40625 
Q 68.21875 64.40625 65.765625 63.28125 
Q 63.328125 62.15625 61.328125 60.046875 
Q 59.328125 57.953125 56.390625 53.21875 
L 40.4375 28.078125 
L 40.4375 11.46875 
Q 40.4375 5.375 41.796875 3.859375 
Q 43.65625 1.8125 47.65625 1.8125 
L 49.8125 1.8125 
L 49.8125 0 
L 21.6875 0 
L 21.6875 1.8125 
L 24.03125 1.8125 
Q 28.21875 1.8125 29.984375 4.34375 
Q 31.0625 5.90625 31.0625 11.46875 
L 31.0625 27.15625 
L 12.890625 54.890625 
Q 9.671875 59.765625 8.515625 60.984375 
Q 7.375 62.203125 3.765625 63.921875 
Q 2.78125 64.40625 0.921875 64.40625 
L 0.921875 66.21875 
L 29.25 66.21875 
L 29.25 64.40625 
L 27.78125 64.40625 
Q 25.484375 64.40625 23.546875 63.328125 
Q 21.625 62.25 21.625 60.109375 
Q 21.625 58.34375 24.609375 53.765625 
L 38.421875 32.421875 
L 51.421875 52.828125 
Q 54.34375 57.421875 54.34375 59.671875 
Q 54.34375 61.03125 53.640625 62.109375 
Q 52.9375 63.1875 51.609375 63.796875 
Q 50.296875 64.40625 47.65625 64.40625 
z
" id="TimesNewRomanPSMT-89"/>
      </defs>
      <g transform="translate(133.441703 450.3125)scale(0.12 -0.12)">
       <use xlink:href="#TimesNewRomanPSMT-85"/>
       <use x="72.216797" xlink:href="#TimesNewRomanPSMT-83"/>
       <use x="127.832031" xlink:href="#TimesNewRomanPSMT-68"/>
       <use x="200.048828" xlink:href="#TimesNewRomanPSMT-74"/>
       <use x="238.964844" xlink:href="#TimesNewRomanPSMT-80"/>
       <use x="294.580078" xlink:href="#TimesNewRomanPSMT-89"/>
      </g>
     </g>
    </g>
    <g id="xtick_3">
     <g id="line2d_5">
      <g>
       <use style="stroke:#000000;stroke-width:0.5;" x="210.587855" xlink:href="#m3694619250" y="438.48"/>
      </g>
     </g>
     <g id="line2d_6">
      <g>
       <use style="stroke:#000000;stroke-width:0.5;" x="210.587855" xlink:href="#m0c716502e3" y="3.6"/>
      </g>
     </g>
     <g id="text_3">
      <!-- USDAUD -->
      <defs>
       <path d="M 45.75 22.171875 
L 20.125 22.171875 
L 15.625 11.71875 
Q 13.96875 7.859375 13.96875 5.953125 
Q 13.96875 4.4375 15.40625 3.296875 
Q 16.84375 2.15625 21.625 1.8125 
L 21.625 0 
L 0.78125 0 
L 0.78125 1.8125 
Q 4.9375 2.546875 6.15625 3.71875 
Q 8.640625 6.0625 11.671875 13.234375 
L 34.96875 67.71875 
L 36.671875 67.71875 
L 59.71875 12.640625 
Q 62.5 6 64.765625 4.015625 
Q 67.046875 2.046875 71.09375 1.8125 
L 71.09375 0 
L 44.96875 0 
L 44.96875 1.8125 
Q 48.921875 2 50.3125 3.125 
Q 51.703125 4.25 51.703125 5.859375 
Q 51.703125 8.015625 49.75 12.640625 
z
M 44.390625 25.78125 
L 33.15625 52.546875 
L 21.625 25.78125 
z
" id="TimesNewRomanPSMT-65"/>
      </defs>
      <g transform="translate(185.585668 450.3125)scale(0.12 -0.12)">
       <use xlink:href="#TimesNewRomanPSMT-85"/>
       <use x="72.216797" xlink:href="#TimesNewRomanPSMT-83"/>
       <use x="127.832031" xlink:href="#TimesNewRomanPSMT-68"/>
       <use x="200.048828" xlink:href="#TimesNewRomanPSMT-65"/>
       <use x="272.265625" xlink:href="#TimesNewRomanPSMT-85"/>
       <use x="344.482422" xlink:href="#TimesNewRomanPSMT-68"/>
      </g>
     </g>
    </g>
    <g id="xtick_4">
     <g id="line2d_7">
      <g>
       <use style="stroke:#000000;stroke-width:0.5;" x="265.726195" xlink:href="#m3694619250" y="438.48"/>
      </g>
     </g>
     <g id="line2d_8">
      <g>
       <use style="stroke:#000000;stroke-width:0.5;" x="265.726195" xlink:href="#m0c716502e3" y="3.6"/>
      </g>
     </g>
     <g id="text_4">
      <!-- USDSEK -->
      <defs>
       <path d="M 29.890625 36.71875 
L 54.296875 12.453125 
Q 60.296875 6.453125 64.546875 4.265625 
Q 68.796875 2.09375 73.046875 1.8125 
L 73.046875 0 
L 41.546875 0 
L 41.546875 1.8125 
Q 44.390625 1.8125 45.625 2.765625 
Q 46.875 3.71875 46.875 4.890625 
Q 46.875 6.0625 46.40625 6.984375 
Q 45.953125 7.90625 43.359375 10.453125 
L 20.515625 33.0625 
L 20.515625 11.71875 
Q 20.515625 6.6875 21.140625 5.078125 
Q 21.625 3.859375 23.1875 2.984375 
Q 25.296875 1.8125 27.640625 1.8125 
L 29.890625 1.8125 
L 29.890625 0 
L 1.65625 0 
L 1.65625 1.8125 
L 4 1.8125 
Q 8.109375 1.8125 9.96875 4.203125 
Q 11.140625 5.765625 11.140625 11.71875 
L 11.140625 54.5 
Q 11.140625 59.515625 10.5 61.1875 
Q 10.015625 62.359375 8.5 63.234375 
Q 6.34375 64.40625 4 64.40625 
L 1.65625 64.40625 
L 1.65625 66.21875 
L 29.890625 66.21875 
L 29.890625 64.40625 
L 27.640625 64.40625 
Q 25.34375 64.40625 23.1875 63.28125 
Q 21.6875 62.5 21.09375 60.9375 
Q 20.515625 59.375 20.515625 54.5 
L 20.515625 34.234375 
Q 21.484375 35.15625 27.203125 40.4375 
Q 41.703125 53.71875 44.734375 58.15625 
Q 46.046875 60.109375 46.046875 61.578125 
Q 46.046875 62.703125 45.015625 63.546875 
Q 44 64.40625 41.546875 64.40625 
L 40.046875 64.40625 
L 40.046875 66.21875 
L 64.359375 66.21875 
L 64.359375 64.40625 
Q 62.203125 64.359375 60.4375 63.8125 
Q 58.6875 63.28125 56.140625 61.734375 
Q 53.609375 60.203125 49.90625 56.78125 
Q 48.828125 55.8125 39.984375 46.78125 
z
" id="TimesNewRomanPSMT-75"/>
      </defs>
      <g transform="translate(242.389008 450.3125)scale(0.12 -0.12)">
       <use xlink:href="#TimesNewRomanPSMT-85"/>
       <use x="72.216797" xlink:href="#TimesNewRomanPSMT-83"/>
       <use x="127.832031" xlink:href="#TimesNewRomanPSMT-68"/>
       <use x="200.048828" xlink:href="#TimesNewRomanPSMT-83"/>
       <use x="255.664062" xlink:href="#TimesNewRomanPSMT-69"/>
       <use x="316.748047" xlink:href="#TimesNewRomanPSMT-75"/>
      </g>
     </g>
    </g>
    <g id="xtick_5">
     <g id="line2d_9">
      <g>
       <use style="stroke:#000000;stroke-width:0.5;" x="320.864535" xlink:href="#m3694619250" y="438.48"/>
      </g>
     </g>
     <g id="line2d_10">
      <g>
       <use style="stroke:#000000;stroke-width:0.5;" x="320.864535" xlink:href="#m0c716502e3" y="3.6"/>
      </g>
     </g>
     <g id="text_5">
      <!-- USDCAD -->
      <defs>
       <path d="M 60.203125 67.71875 
L 61.71875 45.21875 
L 60.203125 45.21875 
Q 57.171875 55.328125 51.5625 59.765625 
Q 45.953125 64.203125 38.09375 64.203125 
Q 31.5 64.203125 26.171875 60.859375 
Q 20.84375 57.515625 17.796875 50.1875 
Q 14.75 42.875 14.75 31.984375 
Q 14.75 23 17.625 16.40625 
Q 20.515625 9.8125 26.296875 6.296875 
Q 32.078125 2.78125 39.5 2.78125 
Q 45.953125 2.78125 50.875 5.53125 
Q 55.8125 8.296875 61.71875 16.5 
L 63.234375 15.53125 
Q 58.25 6.6875 51.609375 2.578125 
Q 44.96875 -1.515625 35.84375 -1.515625 
Q 19.390625 -1.515625 10.359375 10.6875 
Q 3.609375 19.78125 3.609375 32.078125 
Q 3.609375 42 8.046875 50.296875 
Q 12.5 58.59375 20.28125 63.15625 
Q 28.078125 67.71875 37.3125 67.71875 
Q 44.484375 67.71875 51.46875 64.203125 
Q 53.515625 63.140625 54.390625 63.140625 
Q 55.71875 63.140625 56.6875 64.0625 
Q 57.953125 65.375 58.5 67.71875 
z
" id="TimesNewRomanPSMT-67"/>
      </defs>
      <g transform="translate(296.193285 450.3125)scale(0.12 -0.12)">
       <use xlink:href="#TimesNewRomanPSMT-85"/>
       <use x="72.216797" xlink:href="#TimesNewRomanPSMT-83"/>
       <use x="127.832031" xlink:href="#TimesNewRomanPSMT-68"/>
       <use x="200.048828" xlink:href="#TimesNewRomanPSMT-67"/>
       <use x="266.748047" xlink:href="#TimesNewRomanPSMT-65"/>
       <use x="338.964844" xlink:href="#TimesNewRomanPSMT-68"/>
      </g>
     </g>
    </g>
    <g id="xtick_6">
     <g id="line2d_11">
      <g>
       <use style="stroke:#000000;stroke-width:0.5;" x="376.002875" xlink:href="#m3694619250" y="438.48"/>
      </g>
     </g>
     <g id="line2d_12">
      <g>
       <use style="stroke:#000000;stroke-width:0.5;" x="376.002875" xlink:href="#m0c716502e3" y="3.6"/>
      </g>
     </g>
     <g id="text_6">
      <!-- USDGBP -->
      <defs>
       <path d="M 61.375 67.71875 
L 63.09375 46.828125 
L 61.375 46.828125 
Q 58.796875 54.640625 54.6875 58.59375 
Q 48.78125 64.3125 39.5 64.3125 
Q 26.859375 64.3125 20.265625 54.296875 
Q 14.75 45.84375 14.75 34.1875 
Q 14.75 24.703125 18.40625 16.890625 
Q 22.078125 9.078125 28 5.4375 
Q 33.9375 1.8125 40.1875 1.8125 
Q 43.84375 1.8125 47.265625 2.734375 
Q 50.6875 3.65625 53.859375 5.46875 
L 53.859375 24.609375 
Q 53.859375 29.59375 53.09375 31.125 
Q 52.34375 32.671875 50.75 33.46875 
Q 49.171875 34.28125 45.171875 34.28125 
L 45.171875 36.140625 
L 70.796875 36.140625 
L 70.796875 34.28125 
L 69.578125 34.28125 
Q 65.765625 34.28125 64.359375 31.734375 
Q 63.375 29.9375 63.375 24.609375 
L 63.375 4.34375 
Q 57.765625 1.3125 52.296875 -0.09375 
Q 46.828125 -1.515625 40.140625 -1.515625 
Q 20.953125 -1.515625 10.984375 10.796875 
Q 3.515625 20.015625 3.515625 32.078125 
Q 3.515625 40.828125 7.71875 48.828125 
Q 12.703125 58.34375 21.390625 63.484375 
Q 28.65625 67.71875 38.578125 67.71875 
Q 42.1875 67.71875 45.140625 67.125 
Q 48.09375 66.546875 53.515625 64.546875 
Q 56.25 63.53125 57.171875 63.53125 
Q 58.109375 63.53125 58.765625 64.375 
Q 59.421875 65.234375 59.578125 67.71875 
z
" id="TimesNewRomanPSMT-71"/>
       <path d="M 46.1875 33.796875 
Q 53.078125 32.328125 56.5 29.109375 
Q 61.234375 24.609375 61.234375 18.109375 
Q 61.234375 13.1875 58.109375 8.671875 
Q 54.984375 4.15625 49.53125 2.078125 
Q 44.09375 0 32.90625 0 
L 1.65625 0 
L 1.65625 1.8125 
L 4.15625 1.8125 
Q 8.296875 1.8125 10.109375 4.4375 
Q 11.234375 6.15625 11.234375 11.71875 
L 11.234375 54.5 
Q 11.234375 60.640625 9.8125 62.25 
Q 7.90625 64.40625 4.15625 64.40625 
L 1.65625 64.40625 
L 1.65625 66.21875 
L 30.28125 66.21875 
Q 38.28125 66.21875 43.109375 65.046875 
Q 50.4375 63.28125 54.296875 58.8125 
Q 58.15625 54.34375 58.15625 48.53125 
Q 58.15625 43.5625 55.125 39.625 
Q 52.09375 35.6875 46.1875 33.796875 
z
M 20.609375 36.421875 
Q 22.40625 36.078125 24.71875 35.90625 
Q 27.046875 35.75 29.828125 35.75 
Q 36.96875 35.75 40.546875 37.28125 
Q 44.140625 38.8125 46.046875 41.984375 
Q 47.953125 45.171875 47.953125 48.921875 
Q 47.953125 54.734375 43.21875 58.828125 
Q 38.484375 62.9375 29.390625 62.9375 
Q 24.515625 62.9375 20.609375 61.859375 
z
M 20.609375 4.78125 
Q 26.265625 3.46875 31.78125 3.46875 
Q 40.625 3.46875 45.265625 7.4375 
Q 49.90625 11.421875 49.90625 17.28125 
Q 49.90625 21.140625 47.796875 24.703125 
Q 45.703125 28.265625 40.96875 30.3125 
Q 36.234375 32.375 29.25 32.375 
Q 26.21875 32.375 24.0625 32.265625 
Q 21.921875 32.171875 20.609375 31.9375 
z
" id="TimesNewRomanPSMT-66"/>
      </defs>
      <g transform="translate(352.328187 450.3125)scale(0.12 -0.12)">
       <use xlink:href="#TimesNewRomanPSMT-85"/>
       <use x="72.216797" xlink:href="#TimesNewRomanPSMT-83"/>
       <use x="127.832031" xlink:href="#TimesNewRomanPSMT-68"/>
       <use x="200.048828" xlink:href="#TimesNewRomanPSMT-71"/>
       <use x="272.265625" xlink:href="#TimesNewRomanPSMT-66"/>
       <use x="338.964844" xlink:href="#TimesNewRomanPSMT-80"/>
      </g>
     </g>
    </g>
    <g id="xtick_7">
     <g id="line2d_13">
      <g>
       <use style="stroke:#000000;stroke-width:0.5;" x="431.141215" xlink:href="#m3694619250" y="438.48"/>
      </g>
     </g>
     <g id="line2d_14">
      <g>
       <use style="stroke:#000000;stroke-width:0.5;" x="431.141215" xlink:href="#m0c716502e3" y="3.6"/>
      </g>
     </g>
     <g id="text_7">
      <!-- USDCHF -->
      <defs>
       <path d="M 20.5625 35.5 
L 51.3125 35.5 
L 51.3125 54.4375 
Q 51.3125 59.515625 50.6875 61.140625 
Q 50.203125 62.359375 48.640625 63.234375 
Q 46.53125 64.40625 44.1875 64.40625 
L 41.84375 64.40625 
L 41.84375 66.21875 
L 70.171875 66.21875 
L 70.171875 64.40625 
L 67.828125 64.40625 
Q 65.484375 64.40625 63.375 63.28125 
Q 61.8125 62.5 61.25 60.90625 
Q 60.6875 59.328125 60.6875 54.4375 
L 60.6875 11.71875 
Q 60.6875 6.6875 61.328125 5.078125 
Q 61.8125 3.859375 63.328125 2.984375 
Q 65.484375 1.8125 67.828125 1.8125 
L 70.171875 1.8125 
L 70.171875 0 
L 41.84375 0 
L 41.84375 1.8125 
L 44.1875 1.8125 
Q 48.25 1.8125 50.09375 4.203125 
Q 51.3125 5.765625 51.3125 11.71875 
L 51.3125 31.890625 
L 20.5625 31.890625 
L 20.5625 11.71875 
Q 20.5625 6.6875 21.1875 5.078125 
Q 21.6875 3.859375 23.25 2.984375 
Q 25.34375 1.8125 27.6875 1.8125 
L 30.078125 1.8125 
L 30.078125 0 
L 1.703125 0 
L 1.703125 1.8125 
L 4.046875 1.8125 
Q 8.15625 1.8125 10.015625 4.203125 
Q 11.1875 5.765625 11.1875 11.71875 
L 11.1875 54.4375 
Q 11.1875 59.515625 10.546875 61.140625 
Q 10.0625 62.359375 8.546875 63.234375 
Q 6.390625 64.40625 4.046875 64.40625 
L 1.703125 64.40625 
L 1.703125 66.21875 
L 30.078125 66.21875 
L 30.078125 64.40625 
L 27.6875 64.40625 
Q 25.34375 64.40625 23.25 63.28125 
Q 21.734375 62.5 21.140625 60.90625 
Q 20.5625 59.328125 20.5625 54.4375 
z
" id="TimesNewRomanPSMT-72"/>
       <path d="M 20.453125 62.59375 
L 20.453125 36.578125 
L 32.515625 36.578125 
Q 36.671875 36.578125 38.59375 38.40625 
Q 40.53125 40.234375 41.15625 45.65625 
L 42.96875 45.65625 
L 42.96875 23.25 
L 41.15625 23.25 
Q 41.109375 27.09375 40.15625 28.90625 
Q 39.203125 30.71875 37.515625 31.609375 
Q 35.84375 32.515625 32.515625 32.515625 
L 20.453125 32.515625 
L 20.453125 11.71875 
Q 20.453125 6.6875 21.09375 5.078125 
Q 21.578125 3.859375 23.140625 2.984375 
Q 25.296875 1.8125 27.640625 1.8125 
L 30.03125 1.8125 
L 30.03125 0 
L 1.609375 0 
L 1.609375 1.8125 
L 3.953125 1.8125 
Q 8.0625 1.8125 9.90625 4.203125 
Q 11.078125 5.765625 11.078125 11.71875 
L 11.078125 54.5 
Q 11.078125 59.515625 10.453125 61.140625 
Q 9.96875 62.359375 8.453125 63.234375 
Q 6.34375 64.40625 3.953125 64.40625 
L 1.609375 64.40625 
L 1.609375 66.21875 
L 50.875 66.21875 
L 51.515625 51.65625 
L 49.8125 51.65625 
Q 48.53125 56.296875 46.84375 58.46875 
Q 45.171875 60.640625 42.703125 61.609375 
Q 40.234375 62.59375 35.0625 62.59375 
z
" id="TimesNewRomanPSMT-70"/>
      </defs>
      <g transform="translate(407.466527 450.3125)scale(0.12 -0.12)">
       <use xlink:href="#TimesNewRomanPSMT-85"/>
       <use x="72.216797" xlink:href="#TimesNewRomanPSMT-83"/>
       <use x="127.832031" xlink:href="#TimesNewRomanPSMT-68"/>
       <use x="200.048828" xlink:href="#TimesNewRomanPSMT-67"/>
       <use x="266.748047" xlink:href="#TimesNewRomanPSMT-72"/>
       <use x="338.964844" xlink:href="#TimesNewRomanPSMT-70"/>
      </g>
     </g>
    </g>
    <g id="xtick_8">
     <g id="line2d_15">
      <g>
       <use style="stroke:#000000;stroke-width:0.5;" x="486.279555" xlink:href="#m3694619250" y="438.48"/>
      </g>
     </g>
     <g id="line2d_16">
      <g>
       <use style="stroke:#000000;stroke-width:0.5;" x="486.279555" xlink:href="#m0c716502e3" y="3.6"/>
      </g>
     </g>
     <g id="text_8">
      <!-- USDNZD -->
      <defs>
       <path d="M -1.3125 66.21875 
L 16.65625 66.21875 
L 57.125 16.546875 
L 57.125 54.734375 
Q 57.125 60.84375 55.765625 62.359375 
Q 53.953125 64.40625 50.046875 64.40625 
L 47.75 64.40625 
L 47.75 66.21875 
L 70.796875 66.21875 
L 70.796875 64.40625 
L 68.453125 64.40625 
Q 64.265625 64.40625 62.5 61.859375 
Q 61.421875 60.296875 61.421875 54.734375 
L 61.421875 -1.078125 
L 59.671875 -1.078125 
L 16.015625 52.25 
L 16.015625 11.46875 
Q 16.015625 5.375 17.328125 3.859375 
Q 19.1875 1.8125 23.046875 1.8125 
L 25.390625 1.8125 
L 25.390625 0 
L 2.34375 0 
L 2.34375 1.8125 
L 4.640625 1.8125 
Q 8.890625 1.8125 10.640625 4.34375 
Q 11.71875 5.90625 11.71875 11.46875 
L 11.71875 57.515625 
Q 8.84375 60.890625 7.34375 61.953125 
Q 5.859375 63.03125 2.984375 63.96875 
Q 1.5625 64.40625 -1.3125 64.40625 
z
" id="TimesNewRomanPSMT-78"/>
       <path d="M 57.515625 66.21875 
L 14.015625 4 
L 41.15625 4 
Q 47.40625 4 50.75 6.734375 
Q 54.109375 9.46875 56.6875 17.828125 
L 58.296875 17.53125 
L 55.171875 0 
L 1.265625 0 
L 1.265625 1.8125 
L 43.75 62.25 
L 22.5625 62.25 
Q 17.28125 62.25 14.90625 61.109375 
Q 12.546875 59.96875 11.296875 57.78125 
Q 10.0625 55.609375 9.03125 49.65625 
L 7.171875 49.65625 
L 8.546875 66.21875 
z
" id="TimesNewRomanPSMT-90"/>
      </defs>
      <g transform="translate(461.945805 450.3125)scale(0.12 -0.12)">
       <use xlink:href="#TimesNewRomanPSMT-85"/>
       <use x="72.216797" xlink:href="#TimesNewRomanPSMT-83"/>
       <use x="127.832031" xlink:href="#TimesNewRomanPSMT-68"/>
       <use x="200.048828" xlink:href="#TimesNewRomanPSMT-78"/>
       <use x="272.265625" xlink:href="#TimesNewRomanPSMT-90"/>
       <use x="333.349609" xlink:href="#TimesNewRomanPSMT-68"/>
      </g>
     </g>
    </g>
    <g id="xtick_9">
     <g id="line2d_17">
      <g>
       <use style="stroke:#000000;stroke-width:0.5;" x="541.417895" xlink:href="#m3694619250" y="438.48"/>
      </g>
     </g>
     <g id="line2d_18">
      <g>
       <use style="stroke:#000000;stroke-width:0.5;" x="541.417895" xlink:href="#m0c716502e3" y="3.6"/>
      </g>
     </g>
     <g id="text_9">
      <!-- USDCNY -->
      <g transform="translate(516.746645 450.3125)scale(0.12 -0.12)">
       <use xlink:href="#TimesNewRomanPSMT-85"/>
       <use x="72.216797" xlink:href="#TimesNewRomanPSMT-83"/>
       <use x="127.832031" xlink:href="#TimesNewRomanPSMT-68"/>
       <use x="200.048828" xlink:href="#TimesNewRomanPSMT-67"/>
       <use x="266.748047" xlink:href="#TimesNewRomanPSMT-78"/>
       <use x="338.964844" xlink:href="#TimesNewRomanPSMT-89"/>
      </g>
     </g>
    </g>
    <g id="xtick_10">
     <g id="line2d_19">
      <g>
       <use style="stroke:#000000;stroke-width:0.5;" x="596.556235" xlink:href="#m3694619250" y="438.48"/>
      </g>
     </g>
     <g id="line2d_20">
      <g>
       <use style="stroke:#000000;stroke-width:0.5;" x="596.556235" xlink:href="#m0c716502e3" y="3.6"/>
      </g>
     </g>
     <g id="text_10">
      <!-- USDBTC -->
      <defs>
       <path d="M 57.859375 66.21875 
L 58.59375 50.6875 
L 56.734375 50.6875 
Q 56.203125 54.78125 55.28125 56.546875 
Q 53.765625 59.375 51.25 60.71875 
Q 48.734375 62.0625 44.625 62.0625 
L 35.296875 62.0625 
L 35.296875 11.46875 
Q 35.296875 5.375 36.625 3.859375 
Q 38.484375 1.8125 42.328125 1.8125 
L 44.625 1.8125 
L 44.625 0 
L 16.546875 0 
L 16.546875 1.8125 
L 18.890625 1.8125 
Q 23.09375 1.8125 24.859375 4.34375 
Q 25.921875 5.90625 25.921875 11.46875 
L 25.921875 62.0625 
L 17.96875 62.0625 
Q 13.328125 62.0625 11.375 61.375 
Q 8.84375 60.453125 7.03125 57.8125 
Q 5.21875 55.171875 4.890625 50.6875 
L 3.03125 50.6875 
L 3.8125 66.21875 
z
" id="TimesNewRomanPSMT-84"/>
      </defs>
      <g transform="translate(572.88436 450.3125)scale(0.12 -0.12)">
       <use xlink:href="#TimesNewRomanPSMT-85"/>
       <use x="72.216797" xlink:href="#TimesNewRomanPSMT-83"/>
       <use x="127.832031" xlink:href="#TimesNewRomanPSMT-68"/>
       <use x="200.048828" xlink:href="#TimesNewRomanPSMT-66"/>
       <use x="266.748047" xlink:href="#TimesNewRomanPSMT-84"/>
       <use x="327.832031" xlink:href="#TimesNewRomanPSMT-67"/>
      </g>
     </g>
    </g>
    <g id="xtick_11">
     <g id="line2d_21">
      <g>
       <use style="stroke:#000000;stroke-width:0.5;" x="651.694574" xlink:href="#m3694619250" y="438.48"/>
      </g>
     </g>
     <g id="line2d_22">
      <g>
       <use style="stroke:#000000;stroke-width:0.5;" x="651.694574" xlink:href="#m0c716502e3" y="3.6"/>
      </g>
     </g>
     <g id="text_11">
      <!-- USDETH -->
      <g transform="translate(628.029262 450.3125)scale(0.12 -0.12)">
       <use xlink:href="#TimesNewRomanPSMT-85"/>
       <use x="72.216797" xlink:href="#TimesNewRomanPSMT-83"/>
       <use x="127.832031" xlink:href="#TimesNewRomanPSMT-68"/>
       <use x="200.048828" xlink:href="#TimesNewRomanPSMT-69"/>
       <use x="261.132812" xlink:href="#TimesNewRomanPSMT-84"/>
       <use x="322.216797" xlink:href="#TimesNewRomanPSMT-72"/>
      </g>
     </g>
    </g>
    <g id="xtick_12">
     <g id="line2d_23">
      <g>
       <use style="stroke:#000000;stroke-width:0.5;" x="706.832914" xlink:href="#m3694619250" y="438.48"/>
      </g>
     </g>
     <g id="line2d_24">
      <g>
       <use style="stroke:#000000;stroke-width:0.5;" x="706.832914" xlink:href="#m0c716502e3" y="3.6"/>
      </g>
     </g>
     <g id="text_12">
      <!-- USDLTC -->
      <defs>
       <path d="M 57.328125 18.3125 
L 58.9375 17.96875 
L 53.265625 0 
L 2 0 
L 2 1.8125 
L 4.5 1.8125 
Q 8.6875 1.8125 10.5 4.546875 
Q 11.53125 6.109375 11.53125 11.765625 
L 11.53125 54.5 
Q 11.53125 60.6875 10.15625 62.25 
Q 8.25 64.40625 4.5 64.40625 
L 2 64.40625 
L 2 66.21875 
L 31.984375 66.21875 
L 31.984375 64.40625 
Q 26.703125 64.453125 24.578125 63.421875 
Q 22.46875 62.40625 21.6875 60.84375 
Q 20.90625 59.28125 20.90625 53.375 
L 20.90625 11.765625 
Q 20.90625 7.71875 21.6875 6.203125 
Q 22.265625 5.171875 23.484375 4.6875 
Q 24.703125 4.203125 31.109375 4.203125 
L 35.9375 4.203125 
Q 43.5625 4.203125 46.625 5.328125 
Q 49.703125 6.453125 52.234375 9.296875 
Q 54.78125 12.15625 57.328125 18.3125 
z
" id="TimesNewRomanPSMT-76"/>
      </defs>
      <g transform="translate(684.046039 450.3125)scale(0.12 -0.12)">
       <use xlink:href="#TimesNewRomanPSMT-85"/>
       <use x="72.216797" xlink:href="#TimesNewRomanPSMT-83"/>
       <use x="127.832031" xlink:href="#TimesNewRomanPSMT-68"/>
       <use x="200.048828" xlink:href="#TimesNewRomanPSMT-76"/>
       <use x="252.007812" xlink:href="#TimesNewRomanPSMT-84"/>
       <use x="313.091797" xlink:href="#TimesNewRomanPSMT-67"/>
      </g>
     </g>
    </g>
    <g id="xtick_13">
     <g id="line2d_25">
      <g>
       <use style="stroke:#000000;stroke-width:0.5;" x="761.971254" xlink:href="#m3694619250" y="438.48"/>
      </g>
     </g>
     <g id="line2d_26">
      <g>
       <use style="stroke:#000000;stroke-width:0.5;" x="761.971254" xlink:href="#m0c716502e3" y="3.6"/>
      </g>
     </g>
     <g id="text_13">
      <!-- USDDOGE -->
      <defs>
       <path d="M 36.578125 67.71875 
Q 49.46875 67.71875 58.90625 57.921875 
Q 68.359375 48.140625 68.359375 33.5 
Q 68.359375 18.40625 58.828125 8.4375 
Q 49.3125 -1.515625 35.796875 -1.515625 
Q 22.125 -1.515625 12.8125 8.203125 
Q 3.515625 17.921875 3.515625 33.34375 
Q 3.515625 49.125 14.265625 59.078125 
Q 23.578125 67.71875 36.578125 67.71875 
z
M 35.640625 64.15625 
Q 26.765625 64.15625 21.390625 57.5625 
Q 14.703125 49.359375 14.703125 33.546875 
Q 14.703125 17.328125 21.625 8.59375 
Q 26.953125 1.953125 35.6875 1.953125 
Q 45.015625 1.953125 51.09375 9.21875 
Q 57.171875 16.5 57.171875 32.171875 
Q 57.171875 49.171875 50.484375 57.515625 
Q 45.125 64.15625 35.640625 64.15625 
z
" id="TimesNewRomanPSMT-79"/>
      </defs>
      <g transform="translate(733.304379 450.3125)scale(0.12 -0.12)">
       <use xlink:href="#TimesNewRomanPSMT-85"/>
       <use x="72.216797" xlink:href="#TimesNewRomanPSMT-83"/>
       <use x="127.832031" xlink:href="#TimesNewRomanPSMT-68"/>
       <use x="200.048828" xlink:href="#TimesNewRomanPSMT-68"/>
       <use x="272.265625" xlink:href="#TimesNewRomanPSMT-79"/>
       <use x="344.482422" xlink:href="#TimesNewRomanPSMT-71"/>
       <use x="416.699219" xlink:href="#TimesNewRomanPSMT-69"/>
      </g>
     </g>
    </g>
    <g id="xtick_14">
     <g id="line2d_27">
      <g>
       <use style="stroke:#000000;stroke-width:0.5;" x="817.109594" xlink:href="#m3694619250" y="438.48"/>
      </g>
     </g>
     <g id="line2d_28">
      <g>
       <use style="stroke:#000000;stroke-width:0.5;" x="817.109594" xlink:href="#m0c716502e3" y="3.6"/>
      </g>
     </g>
     <g id="text_14">
      <!-- USDXRP -->
      <defs>
       <path d="M 40.828125 36.671875 
L 55.03125 15.484375 
Q 60.9375 6.6875 63.796875 4.359375 
Q 66.65625 2.046875 71.046875 1.8125 
L 71.046875 0 
L 42.625 0 
L 42.625 1.8125 
Q 45.453125 1.859375 46.828125 2.390625 
Q 47.859375 2.828125 48.515625 3.734375 
Q 49.171875 4.640625 49.171875 5.5625 
Q 49.171875 6.6875 48.734375 7.8125 
Q 48.390625 8.640625 46.046875 12.109375 
L 34.8125 29.109375 
L 20.953125 11.328125 
Q 18.75 8.5 18.3125 7.546875 
Q 17.875 6.59375 17.875 5.5625 
Q 17.875 4 19.1875 2.96875 
Q 20.515625 1.953125 24.21875 1.8125 
L 24.21875 0 
L 0.734375 0 
L 0.734375 1.8125 
Q 3.21875 2.046875 5.03125 2.828125 
Q 8.0625 4.109375 10.796875 6.25 
Q 13.53125 8.40625 17.046875 12.84375 
L 32.671875 32.5625 
L 19.625 51.65625 
Q 14.3125 59.421875 10.59375 61.84375 
Q 6.890625 64.265625 2.046875 64.40625 
L 2.046875 66.21875 
L 32.671875 66.21875 
L 32.671875 64.40625 
Q 28.765625 64.265625 27.3125 63.140625 
Q 25.875 62.015625 25.875 60.640625 
Q 25.875 58.84375 28.21875 55.375 
L 38.375 40.1875 
L 50.140625 55.078125 
Q 52.203125 57.71875 52.65625 58.6875 
Q 53.125 59.671875 53.125 60.6875 
Q 53.125 61.71875 52.546875 62.5 
Q 51.8125 63.53125 50.6875 63.9375 
Q 49.5625 64.359375 46.046875 64.40625 
L 46.046875 66.21875 
L 69.53125 66.21875 
L 69.53125 64.40625 
Q 66.75 64.265625 64.984375 63.53125 
Q 62.359375 62.40625 60.15625 60.5 
Q 57.953125 58.59375 53.953125 53.46875 
z
" id="TimesNewRomanPSMT-88"/>
      </defs>
      <g transform="translate(793.434907 450.3125)scale(0.12 -0.12)">
       <use xlink:href="#TimesNewRomanPSMT-85"/>
       <use x="72.216797" xlink:href="#TimesNewRomanPSMT-83"/>
       <use x="127.832031" xlink:href="#TimesNewRomanPSMT-68"/>
       <use x="200.048828" xlink:href="#TimesNewRomanPSMT-88"/>
       <use x="272.265625" xlink:href="#TimesNewRomanPSMT-82"/>
       <use x="338.964844" xlink:href="#TimesNewRomanPSMT-80"/>
      </g>
     </g>
    </g>
    <g id="xtick_15">
     <g id="line2d_29">
      <defs>
       <path d="M 0 0 
L 0 -1.5 
" id="me150cabcd3" style="stroke:#000000;stroke-width:0.5;"/>
      </defs>
      <g>
       <use style="stroke:#000000;stroke-width:0.5;" x="56.200503" xlink:href="#me150cabcd3" y="438.48"/>
      </g>
     </g>
     <g id="line2d_30">
      <defs>
       <path d="M 0 0 
L 0 1.5 
" id="mbf26d96035" style="stroke:#000000;stroke-width:0.5;"/>
      </defs>
      <g>
       <use style="stroke:#000000;stroke-width:0.5;" x="56.200503" xlink:href="#mbf26d96035" y="3.6"/>
      </g>
     </g>
    </g>
    <g id="xtick_16">
     <g id="line2d_31">
      <g>
       <use style="stroke:#000000;stroke-width:0.5;" x="67.228171" xlink:href="#me150cabcd3" y="438.48"/>
      </g>
     </g>
     <g id="line2d_32">
      <g>
       <use style="stroke:#000000;stroke-width:0.5;" x="67.228171" xlink:href="#mbf26d96035" y="3.6"/>
      </g>
     </g>
    </g>
    <g id="xtick_17">
     <g id="line2d_33">
      <g>
       <use style="stroke:#000000;stroke-width:0.5;" x="78.255839" xlink:href="#me150cabcd3" y="438.48"/>
      </g>
     </g>
     <g id="line2d_34">
      <g>
       <use style="stroke:#000000;stroke-width:0.5;" x="78.255839" xlink:href="#mbf26d96035" y="3.6"/>
      </g>
     </g>
    </g>
    <g id="xtick_18">
     <g id="line2d_35">
      <g>
       <use style="stroke:#000000;stroke-width:0.5;" x="89.283507" xlink:href="#me150cabcd3" y="438.48"/>
      </g>
     </g>
     <g id="line2d_36">
      <g>
       <use style="stroke:#000000;stroke-width:0.5;" x="89.283507" xlink:href="#mbf26d96035" y="3.6"/>
      </g>
     </g>
    </g>
    <g id="xtick_19">
     <g id="line2d_37">
      <g>
       <use style="stroke:#000000;stroke-width:0.5;" x="111.338843" xlink:href="#me150cabcd3" y="438.48"/>
      </g>
     </g>
     <g id="line2d_38">
      <g>
       <use style="stroke:#000000;stroke-width:0.5;" x="111.338843" xlink:href="#mbf26d96035" y="3.6"/>
      </g>
     </g>
    </g>
    <g id="xtick_20">
     <g id="line2d_39">
      <g>
       <use style="stroke:#000000;stroke-width:0.5;" x="122.366511" xlink:href="#me150cabcd3" y="438.48"/>
      </g>
     </g>
     <g id="line2d_40">
      <g>
       <use style="stroke:#000000;stroke-width:0.5;" x="122.366511" xlink:href="#mbf26d96035" y="3.6"/>
      </g>
     </g>
    </g>
    <g id="xtick_21">
     <g id="line2d_41">
      <g>
       <use style="stroke:#000000;stroke-width:0.5;" x="133.394179" xlink:href="#me150cabcd3" y="438.48"/>
      </g>
     </g>
     <g id="line2d_42">
      <g>
       <use style="stroke:#000000;stroke-width:0.5;" x="133.394179" xlink:href="#mbf26d96035" y="3.6"/>
      </g>
     </g>
    </g>
    <g id="xtick_22">
     <g id="line2d_43">
      <g>
       <use style="stroke:#000000;stroke-width:0.5;" x="144.421847" xlink:href="#me150cabcd3" y="438.48"/>
      </g>
     </g>
     <g id="line2d_44">
      <g>
       <use style="stroke:#000000;stroke-width:0.5;" x="144.421847" xlink:href="#mbf26d96035" y="3.6"/>
      </g>
     </g>
    </g>
    <g id="xtick_23">
     <g id="line2d_45">
      <g>
       <use style="stroke:#000000;stroke-width:0.5;" x="166.477183" xlink:href="#me150cabcd3" y="438.48"/>
      </g>
     </g>
     <g id="line2d_46">
      <g>
       <use style="stroke:#000000;stroke-width:0.5;" x="166.477183" xlink:href="#mbf26d96035" y="3.6"/>
      </g>
     </g>
    </g>
    <g id="xtick_24">
     <g id="line2d_47">
      <g>
       <use style="stroke:#000000;stroke-width:0.5;" x="177.504851" xlink:href="#me150cabcd3" y="438.48"/>
      </g>
     </g>
     <g id="line2d_48">
      <g>
       <use style="stroke:#000000;stroke-width:0.5;" x="177.504851" xlink:href="#mbf26d96035" y="3.6"/>
      </g>
     </g>
    </g>
    <g id="xtick_25">
     <g id="line2d_49">
      <g>
       <use style="stroke:#000000;stroke-width:0.5;" x="188.532519" xlink:href="#me150cabcd3" y="438.48"/>
      </g>
     </g>
     <g id="line2d_50">
      <g>
       <use style="stroke:#000000;stroke-width:0.5;" x="188.532519" xlink:href="#mbf26d96035" y="3.6"/>
      </g>
     </g>
    </g>
    <g id="xtick_26">
     <g id="line2d_51">
      <g>
       <use style="stroke:#000000;stroke-width:0.5;" x="199.560187" xlink:href="#me150cabcd3" y="438.48"/>
      </g>
     </g>
     <g id="line2d_52">
      <g>
       <use style="stroke:#000000;stroke-width:0.5;" x="199.560187" xlink:href="#mbf26d96035" y="3.6"/>
      </g>
     </g>
    </g>
    <g id="xtick_27">
     <g id="line2d_53">
      <g>
       <use style="stroke:#000000;stroke-width:0.5;" x="221.615523" xlink:href="#me150cabcd3" y="438.48"/>
      </g>
     </g>
     <g id="line2d_54">
      <g>
       <use style="stroke:#000000;stroke-width:0.5;" x="221.615523" xlink:href="#mbf26d96035" y="3.6"/>
      </g>
     </g>
    </g>
    <g id="xtick_28">
     <g id="line2d_55">
      <g>
       <use style="stroke:#000000;stroke-width:0.5;" x="232.643191" xlink:href="#me150cabcd3" y="438.48"/>
      </g>
     </g>
     <g id="line2d_56">
      <g>
       <use style="stroke:#000000;stroke-width:0.5;" x="232.643191" xlink:href="#mbf26d96035" y="3.6"/>
      </g>
     </g>
    </g>
    <g id="xtick_29">
     <g id="line2d_57">
      <g>
       <use style="stroke:#000000;stroke-width:0.5;" x="243.670859" xlink:href="#me150cabcd3" y="438.48"/>
      </g>
     </g>
     <g id="line2d_58">
      <g>
       <use style="stroke:#000000;stroke-width:0.5;" x="243.670859" xlink:href="#mbf26d96035" y="3.6"/>
      </g>
     </g>
    </g>
    <g id="xtick_30">
     <g id="line2d_59">
      <g>
       <use style="stroke:#000000;stroke-width:0.5;" x="254.698527" xlink:href="#me150cabcd3" y="438.48"/>
      </g>
     </g>
     <g id="line2d_60">
      <g>
       <use style="stroke:#000000;stroke-width:0.5;" x="254.698527" xlink:href="#mbf26d96035" y="3.6"/>
      </g>
     </g>
    </g>
    <g id="xtick_31">
     <g id="line2d_61">
      <g>
       <use style="stroke:#000000;stroke-width:0.5;" x="276.753863" xlink:href="#me150cabcd3" y="438.48"/>
      </g>
     </g>
     <g id="line2d_62">
      <g>
       <use style="stroke:#000000;stroke-width:0.5;" x="276.753863" xlink:href="#mbf26d96035" y="3.6"/>
      </g>
     </g>
    </g>
    <g id="xtick_32">
     <g id="line2d_63">
      <g>
       <use style="stroke:#000000;stroke-width:0.5;" x="287.781531" xlink:href="#me150cabcd3" y="438.48"/>
      </g>
     </g>
     <g id="line2d_64">
      <g>
       <use style="stroke:#000000;stroke-width:0.5;" x="287.781531" xlink:href="#mbf26d96035" y="3.6"/>
      </g>
     </g>
    </g>
    <g id="xtick_33">
     <g id="line2d_65">
      <g>
       <use style="stroke:#000000;stroke-width:0.5;" x="298.809199" xlink:href="#me150cabcd3" y="438.48"/>
      </g>
     </g>
     <g id="line2d_66">
      <g>
       <use style="stroke:#000000;stroke-width:0.5;" x="298.809199" xlink:href="#mbf26d96035" y="3.6"/>
      </g>
     </g>
    </g>
    <g id="xtick_34">
     <g id="line2d_67">
      <g>
       <use style="stroke:#000000;stroke-width:0.5;" x="309.836867" xlink:href="#me150cabcd3" y="438.48"/>
      </g>
     </g>
     <g id="line2d_68">
      <g>
       <use style="stroke:#000000;stroke-width:0.5;" x="309.836867" xlink:href="#mbf26d96035" y="3.6"/>
      </g>
     </g>
    </g>
    <g id="xtick_35">
     <g id="line2d_69">
      <g>
       <use style="stroke:#000000;stroke-width:0.5;" x="331.892203" xlink:href="#me150cabcd3" y="438.48"/>
      </g>
     </g>
     <g id="line2d_70">
      <g>
       <use style="stroke:#000000;stroke-width:0.5;" x="331.892203" xlink:href="#mbf26d96035" y="3.6"/>
      </g>
     </g>
    </g>
    <g id="xtick_36">
     <g id="line2d_71">
      <g>
       <use style="stroke:#000000;stroke-width:0.5;" x="342.919871" xlink:href="#me150cabcd3" y="438.48"/>
      </g>
     </g>
     <g id="line2d_72">
      <g>
       <use style="stroke:#000000;stroke-width:0.5;" x="342.919871" xlink:href="#mbf26d96035" y="3.6"/>
      </g>
     </g>
    </g>
    <g id="xtick_37">
     <g id="line2d_73">
      <g>
       <use style="stroke:#000000;stroke-width:0.5;" x="353.947539" xlink:href="#me150cabcd3" y="438.48"/>
      </g>
     </g>
     <g id="line2d_74">
      <g>
       <use style="stroke:#000000;stroke-width:0.5;" x="353.947539" xlink:href="#mbf26d96035" y="3.6"/>
      </g>
     </g>
    </g>
    <g id="xtick_38">
     <g id="line2d_75">
      <g>
       <use style="stroke:#000000;stroke-width:0.5;" x="364.975207" xlink:href="#me150cabcd3" y="438.48"/>
      </g>
     </g>
     <g id="line2d_76">
      <g>
       <use style="stroke:#000000;stroke-width:0.5;" x="364.975207" xlink:href="#mbf26d96035" y="3.6"/>
      </g>
     </g>
    </g>
    <g id="xtick_39">
     <g id="line2d_77">
      <g>
       <use style="stroke:#000000;stroke-width:0.5;" x="387.030543" xlink:href="#me150cabcd3" y="438.48"/>
      </g>
     </g>
     <g id="line2d_78">
      <g>
       <use style="stroke:#000000;stroke-width:0.5;" x="387.030543" xlink:href="#mbf26d96035" y="3.6"/>
      </g>
     </g>
    </g>
    <g id="xtick_40">
     <g id="line2d_79">
      <g>
       <use style="stroke:#000000;stroke-width:0.5;" x="398.058211" xlink:href="#me150cabcd3" y="438.48"/>
      </g>
     </g>
     <g id="line2d_80">
      <g>
       <use style="stroke:#000000;stroke-width:0.5;" x="398.058211" xlink:href="#mbf26d96035" y="3.6"/>
      </g>
     </g>
    </g>
    <g id="xtick_41">
     <g id="line2d_81">
      <g>
       <use style="stroke:#000000;stroke-width:0.5;" x="409.085879" xlink:href="#me150cabcd3" y="438.48"/>
      </g>
     </g>
     <g id="line2d_82">
      <g>
       <use style="stroke:#000000;stroke-width:0.5;" x="409.085879" xlink:href="#mbf26d96035" y="3.6"/>
      </g>
     </g>
    </g>
    <g id="xtick_42">
     <g id="line2d_83">
      <g>
       <use style="stroke:#000000;stroke-width:0.5;" x="420.113547" xlink:href="#me150cabcd3" y="438.48"/>
      </g>
     </g>
     <g id="line2d_84">
      <g>
       <use style="stroke:#000000;stroke-width:0.5;" x="420.113547" xlink:href="#mbf26d96035" y="3.6"/>
      </g>
     </g>
    </g>
    <g id="xtick_43">
     <g id="line2d_85">
      <g>
       <use style="stroke:#000000;stroke-width:0.5;" x="442.168883" xlink:href="#me150cabcd3" y="438.48"/>
      </g>
     </g>
     <g id="line2d_86">
      <g>
       <use style="stroke:#000000;stroke-width:0.5;" x="442.168883" xlink:href="#mbf26d96035" y="3.6"/>
      </g>
     </g>
    </g>
    <g id="xtick_44">
     <g id="line2d_87">
      <g>
       <use style="stroke:#000000;stroke-width:0.5;" x="453.196551" xlink:href="#me150cabcd3" y="438.48"/>
      </g>
     </g>
     <g id="line2d_88">
      <g>
       <use style="stroke:#000000;stroke-width:0.5;" x="453.196551" xlink:href="#mbf26d96035" y="3.6"/>
      </g>
     </g>
    </g>
    <g id="xtick_45">
     <g id="line2d_89">
      <g>
       <use style="stroke:#000000;stroke-width:0.5;" x="464.224219" xlink:href="#me150cabcd3" y="438.48"/>
      </g>
     </g>
     <g id="line2d_90">
      <g>
       <use style="stroke:#000000;stroke-width:0.5;" x="464.224219" xlink:href="#mbf26d96035" y="3.6"/>
      </g>
     </g>
    </g>
    <g id="xtick_46">
     <g id="line2d_91">
      <g>
       <use style="stroke:#000000;stroke-width:0.5;" x="475.251887" xlink:href="#me150cabcd3" y="438.48"/>
      </g>
     </g>
     <g id="line2d_92">
      <g>
       <use style="stroke:#000000;stroke-width:0.5;" x="475.251887" xlink:href="#mbf26d96035" y="3.6"/>
      </g>
     </g>
    </g>
    <g id="xtick_47">
     <g id="line2d_93">
      <g>
       <use style="stroke:#000000;stroke-width:0.5;" x="497.307223" xlink:href="#me150cabcd3" y="438.48"/>
      </g>
     </g>
     <g id="line2d_94">
      <g>
       <use style="stroke:#000000;stroke-width:0.5;" x="497.307223" xlink:href="#mbf26d96035" y="3.6"/>
      </g>
     </g>
    </g>
    <g id="xtick_48">
     <g id="line2d_95">
      <g>
       <use style="stroke:#000000;stroke-width:0.5;" x="508.334891" xlink:href="#me150cabcd3" y="438.48"/>
      </g>
     </g>
     <g id="line2d_96">
      <g>
       <use style="stroke:#000000;stroke-width:0.5;" x="508.334891" xlink:href="#mbf26d96035" y="3.6"/>
      </g>
     </g>
    </g>
    <g id="xtick_49">
     <g id="line2d_97">
      <g>
       <use style="stroke:#000000;stroke-width:0.5;" x="519.362559" xlink:href="#me150cabcd3" y="438.48"/>
      </g>
     </g>
     <g id="line2d_98">
      <g>
       <use style="stroke:#000000;stroke-width:0.5;" x="519.362559" xlink:href="#mbf26d96035" y="3.6"/>
      </g>
     </g>
    </g>
    <g id="xtick_50">
     <g id="line2d_99">
      <g>
       <use style="stroke:#000000;stroke-width:0.5;" x="530.390227" xlink:href="#me150cabcd3" y="438.48"/>
      </g>
     </g>
     <g id="line2d_100">
      <g>
       <use style="stroke:#000000;stroke-width:0.5;" x="530.390227" xlink:href="#mbf26d96035" y="3.6"/>
      </g>
     </g>
    </g>
    <g id="xtick_51">
     <g id="line2d_101">
      <g>
       <use style="stroke:#000000;stroke-width:0.5;" x="552.445563" xlink:href="#me150cabcd3" y="438.48"/>
      </g>
     </g>
     <g id="line2d_102">
      <g>
       <use style="stroke:#000000;stroke-width:0.5;" x="552.445563" xlink:href="#mbf26d96035" y="3.6"/>
      </g>
     </g>
    </g>
    <g id="xtick_52">
     <g id="line2d_103">
      <g>
       <use style="stroke:#000000;stroke-width:0.5;" x="563.473231" xlink:href="#me150cabcd3" y="438.48"/>
      </g>
     </g>
     <g id="line2d_104">
      <g>
       <use style="stroke:#000000;stroke-width:0.5;" x="563.473231" xlink:href="#mbf26d96035" y="3.6"/>
      </g>
     </g>
    </g>
    <g id="xtick_53">
     <g id="line2d_105">
      <g>
       <use style="stroke:#000000;stroke-width:0.5;" x="574.500899" xlink:href="#me150cabcd3" y="438.48"/>
      </g>
     </g>
     <g id="line2d_106">
      <g>
       <use style="stroke:#000000;stroke-width:0.5;" x="574.500899" xlink:href="#mbf26d96035" y="3.6"/>
      </g>
     </g>
    </g>
    <g id="xtick_54">
     <g id="line2d_107">
      <g>
       <use style="stroke:#000000;stroke-width:0.5;" x="585.528567" xlink:href="#me150cabcd3" y="438.48"/>
      </g>
     </g>
     <g id="line2d_108">
      <g>
       <use style="stroke:#000000;stroke-width:0.5;" x="585.528567" xlink:href="#mbf26d96035" y="3.6"/>
      </g>
     </g>
    </g>
    <g id="xtick_55">
     <g id="line2d_109">
      <g>
       <use style="stroke:#000000;stroke-width:0.5;" x="607.583903" xlink:href="#me150cabcd3" y="438.48"/>
      </g>
     </g>
     <g id="line2d_110">
      <g>
       <use style="stroke:#000000;stroke-width:0.5;" x="607.583903" xlink:href="#mbf26d96035" y="3.6"/>
      </g>
     </g>
    </g>
    <g id="xtick_56">
     <g id="line2d_111">
      <g>
       <use style="stroke:#000000;stroke-width:0.5;" x="618.611571" xlink:href="#me150cabcd3" y="438.48"/>
      </g>
     </g>
     <g id="line2d_112">
      <g>
       <use style="stroke:#000000;stroke-width:0.5;" x="618.611571" xlink:href="#mbf26d96035" y="3.6"/>
      </g>
     </g>
    </g>
    <g id="xtick_57">
     <g id="line2d_113">
      <g>
       <use style="stroke:#000000;stroke-width:0.5;" x="629.639239" xlink:href="#me150cabcd3" y="438.48"/>
      </g>
     </g>
     <g id="line2d_114">
      <g>
       <use style="stroke:#000000;stroke-width:0.5;" x="629.639239" xlink:href="#mbf26d96035" y="3.6"/>
      </g>
     </g>
    </g>
    <g id="xtick_58">
     <g id="line2d_115">
      <g>
       <use style="stroke:#000000;stroke-width:0.5;" x="640.666906" xlink:href="#me150cabcd3" y="438.48"/>
      </g>
     </g>
     <g id="line2d_116">
      <g>
       <use style="stroke:#000000;stroke-width:0.5;" x="640.666906" xlink:href="#mbf26d96035" y="3.6"/>
      </g>
     </g>
    </g>
    <g id="xtick_59">
     <g id="line2d_117">
      <g>
       <use style="stroke:#000000;stroke-width:0.5;" x="662.722242" xlink:href="#me150cabcd3" y="438.48"/>
      </g>
     </g>
     <g id="line2d_118">
      <g>
       <use style="stroke:#000000;stroke-width:0.5;" x="662.722242" xlink:href="#mbf26d96035" y="3.6"/>
      </g>
     </g>
    </g>
    <g id="xtick_60">
     <g id="line2d_119">
      <g>
       <use style="stroke:#000000;stroke-width:0.5;" x="673.74991" xlink:href="#me150cabcd3" y="438.48"/>
      </g>
     </g>
     <g id="line2d_120">
      <g>
       <use style="stroke:#000000;stroke-width:0.5;" x="673.74991" xlink:href="#mbf26d96035" y="3.6"/>
      </g>
     </g>
    </g>
    <g id="xtick_61">
     <g id="line2d_121">
      <g>
       <use style="stroke:#000000;stroke-width:0.5;" x="684.777578" xlink:href="#me150cabcd3" y="438.48"/>
      </g>
     </g>
     <g id="line2d_122">
      <g>
       <use style="stroke:#000000;stroke-width:0.5;" x="684.777578" xlink:href="#mbf26d96035" y="3.6"/>
      </g>
     </g>
    </g>
    <g id="xtick_62">
     <g id="line2d_123">
      <g>
       <use style="stroke:#000000;stroke-width:0.5;" x="695.805246" xlink:href="#me150cabcd3" y="438.48"/>
      </g>
     </g>
     <g id="line2d_124">
      <g>
       <use style="stroke:#000000;stroke-width:0.5;" x="695.805246" xlink:href="#mbf26d96035" y="3.6"/>
      </g>
     </g>
    </g>
    <g id="xtick_63">
     <g id="line2d_125">
      <g>
       <use style="stroke:#000000;stroke-width:0.5;" x="717.860582" xlink:href="#me150cabcd3" y="438.48"/>
      </g>
     </g>
     <g id="line2d_126">
      <g>
       <use style="stroke:#000000;stroke-width:0.5;" x="717.860582" xlink:href="#mbf26d96035" y="3.6"/>
      </g>
     </g>
    </g>
    <g id="xtick_64">
     <g id="line2d_127">
      <g>
       <use style="stroke:#000000;stroke-width:0.5;" x="728.88825" xlink:href="#me150cabcd3" y="438.48"/>
      </g>
     </g>
     <g id="line2d_128">
      <g>
       <use style="stroke:#000000;stroke-width:0.5;" x="728.88825" xlink:href="#mbf26d96035" y="3.6"/>
      </g>
     </g>
    </g>
    <g id="xtick_65">
     <g id="line2d_129">
      <g>
       <use style="stroke:#000000;stroke-width:0.5;" x="739.915918" xlink:href="#me150cabcd3" y="438.48"/>
      </g>
     </g>
     <g id="line2d_130">
      <g>
       <use style="stroke:#000000;stroke-width:0.5;" x="739.915918" xlink:href="#mbf26d96035" y="3.6"/>
      </g>
     </g>
    </g>
    <g id="xtick_66">
     <g id="line2d_131">
      <g>
       <use style="stroke:#000000;stroke-width:0.5;" x="750.943586" xlink:href="#me150cabcd3" y="438.48"/>
      </g>
     </g>
     <g id="line2d_132">
      <g>
       <use style="stroke:#000000;stroke-width:0.5;" x="750.943586" xlink:href="#mbf26d96035" y="3.6"/>
      </g>
     </g>
    </g>
    <g id="xtick_67">
     <g id="line2d_133">
      <g>
       <use style="stroke:#000000;stroke-width:0.5;" x="772.998922" xlink:href="#me150cabcd3" y="438.48"/>
      </g>
     </g>
     <g id="line2d_134">
      <g>
       <use style="stroke:#000000;stroke-width:0.5;" x="772.998922" xlink:href="#mbf26d96035" y="3.6"/>
      </g>
     </g>
    </g>
    <g id="xtick_68">
     <g id="line2d_135">
      <g>
       <use style="stroke:#000000;stroke-width:0.5;" x="784.02659" xlink:href="#me150cabcd3" y="438.48"/>
      </g>
     </g>
     <g id="line2d_136">
      <g>
       <use style="stroke:#000000;stroke-width:0.5;" x="784.02659" xlink:href="#mbf26d96035" y="3.6"/>
      </g>
     </g>
    </g>
    <g id="xtick_69">
     <g id="line2d_137">
      <g>
       <use style="stroke:#000000;stroke-width:0.5;" x="795.054258" xlink:href="#me150cabcd3" y="438.48"/>
      </g>
     </g>
     <g id="line2d_138">
      <g>
       <use style="stroke:#000000;stroke-width:0.5;" x="795.054258" xlink:href="#mbf26d96035" y="3.6"/>
      </g>
     </g>
    </g>
    <g id="xtick_70">
     <g id="line2d_139">
      <g>
       <use style="stroke:#000000;stroke-width:0.5;" x="806.081926" xlink:href="#me150cabcd3" y="438.48"/>
      </g>
     </g>
     <g id="line2d_140">
      <g>
       <use style="stroke:#000000;stroke-width:0.5;" x="806.081926" xlink:href="#mbf26d96035" y="3.6"/>
      </g>
     </g>
    </g>
    <g id="xtick_71">
     <g id="line2d_141">
      <g>
       <use style="stroke:#000000;stroke-width:0.5;" x="828.137262" xlink:href="#me150cabcd3" y="438.48"/>
      </g>
     </g>
     <g id="line2d_142">
      <g>
       <use style="stroke:#000000;stroke-width:0.5;" x="828.137262" xlink:href="#mbf26d96035" y="3.6"/>
      </g>
     </g>
    </g>
    <g id="xtick_72">
     <g id="line2d_143">
      <g>
       <use style="stroke:#000000;stroke-width:0.5;" x="839.16493" xlink:href="#me150cabcd3" y="438.48"/>
      </g>
     </g>
     <g id="line2d_144">
      <g>
       <use style="stroke:#000000;stroke-width:0.5;" x="839.16493" xlink:href="#mbf26d96035" y="3.6"/>
      </g>
     </g>
    </g>
    <g id="xtick_73">
     <g id="line2d_145">
      <g>
       <use style="stroke:#000000;stroke-width:0.5;" x="850.192598" xlink:href="#me150cabcd3" y="438.48"/>
      </g>
     </g>
     <g id="line2d_146">
      <g>
       <use style="stroke:#000000;stroke-width:0.5;" x="850.192598" xlink:href="#mbf26d96035" y="3.6"/>
      </g>
     </g>
    </g>
    <g id="xtick_74">
     <g id="line2d_147">
      <g>
       <use style="stroke:#000000;stroke-width:0.5;" x="861.220266" xlink:href="#me150cabcd3" y="438.48"/>
      </g>
     </g>
     <g id="line2d_148">
      <g>
       <use style="stroke:#000000;stroke-width:0.5;" x="861.220266" xlink:href="#mbf26d96035" y="3.6"/>
      </g>
     </g>
    </g>
    <g id="xtick_75">
     <g id="line2d_149">
      <g>
       <use style="stroke:#000000;stroke-width:0.5;" x="872.247934" xlink:href="#me150cabcd3" y="438.48"/>
      </g>
     </g>
     <g id="line2d_150">
      <g>
       <use style="stroke:#000000;stroke-width:0.5;" x="872.247934" xlink:href="#mbf26d96035" y="3.6"/>
      </g>
     </g>
    </g>
   </g>
   <g id="matplotlib.axis_2">
    <g id="ytick_1">
     <g id="line2d_151">
      <defs>
       <path d="M 0 0 
L 3 0 
" id="me125152e9c" style="stroke:#000000;stroke-width:0.5;"/>
      </defs>
      <g>
       <use style="stroke:#000000;stroke-width:0.5;" x="45.724219" xlink:href="#me125152e9c" y="438.48"/>
      </g>
     </g>
     <g id="line2d_152">
      <defs>
       <path d="M 0 0 
L -3 0 
" id="m5a883eec9f" style="stroke:#000000;stroke-width:0.5;"/>
      </defs>
      <g>
       <use style="stroke:#000000;stroke-width:0.5;" x="882.724219" xlink:href="#m5a883eec9f" y="438.48"/>
      </g>
     </g>
     <g id="text_15">
      <!-- 0.00 -->
      <defs>
       <path d="M 3.609375 32.71875 
Q 3.609375 44.046875 7.03125 52.21875 
Q 10.453125 60.40625 16.109375 64.40625 
Q 20.515625 67.578125 25.203125 67.578125 
Q 32.8125 67.578125 38.875 59.8125 
Q 46.4375 50.203125 46.4375 33.734375 
Q 46.4375 22.21875 43.109375 14.15625 
Q 39.796875 6.109375 34.640625 2.46875 
Q 29.5 -1.171875 24.703125 -1.171875 
Q 15.234375 -1.171875 8.9375 10.015625 
Q 3.609375 19.4375 3.609375 32.71875 
z
M 13.1875 31.5 
Q 13.1875 17.828125 16.546875 9.1875 
Q 19.34375 1.90625 24.859375 1.90625 
Q 27.484375 1.90625 30.3125 4.265625 
Q 33.15625 6.640625 34.625 12.203125 
Q 36.859375 20.609375 36.859375 35.890625 
Q 36.859375 47.21875 34.515625 54.78125 
Q 32.765625 60.40625 29.984375 62.75 
Q 27.984375 64.359375 25.140625 64.359375 
Q 21.828125 64.359375 19.234375 61.375 
Q 15.71875 57.328125 14.453125 48.625 
Q 13.1875 39.9375 13.1875 31.5 
z
" id="TimesNewRomanPSMT-48"/>
       <path d="M 12.5 9.46875 
Q 14.796875 9.46875 16.359375 7.875 
Q 17.921875 6.296875 17.921875 4.046875 
Q 17.921875 1.8125 16.328125 0.21875 
Q 14.75 -1.375 12.5 -1.375 
Q 10.25 -1.375 8.65625 0.21875 
Q 7.078125 1.8125 7.078125 4.046875 
Q 7.078125 6.34375 8.65625 7.90625 
Q 10.25 9.46875 12.5 9.46875 
z
" id="TimesNewRomanPSMT-46"/>
      </defs>
      <g transform="translate(21.224219 442.64625)scale(0.12 -0.12)">
       <use xlink:href="#TimesNewRomanPSMT-48"/>
       <use x="50" xlink:href="#TimesNewRomanPSMT-46"/>
       <use x="75" xlink:href="#TimesNewRomanPSMT-48"/>
       <use x="125" xlink:href="#TimesNewRomanPSMT-48"/>
      </g>
     </g>
    </g>
    <g id="ytick_2">
     <g id="line2d_153">
      <g>
       <use style="stroke:#000000;stroke-width:0.5;" x="45.724219" xlink:href="#me125152e9c" y="376.018745"/>
      </g>
     </g>
     <g id="line2d_154">
      <g>
       <use style="stroke:#000000;stroke-width:0.5;" x="882.724219" xlink:href="#m5a883eec9f" y="376.018745"/>
      </g>
     </g>
     <g id="text_16">
      <!-- 0.05 -->
      <defs>
       <path d="M 43.40625 66.21875 
L 39.59375 57.90625 
L 19.671875 57.90625 
L 15.328125 49.03125 
Q 28.265625 47.125 35.84375 39.40625 
Q 42.328125 32.765625 42.328125 23.78125 
Q 42.328125 18.5625 40.203125 14.109375 
Q 38.09375 9.671875 34.859375 6.546875 
Q 31.640625 3.421875 27.6875 1.515625 
Q 22.078125 -1.171875 16.15625 -1.171875 
Q 10.203125 -1.171875 7.484375 0.84375 
Q 4.78125 2.875 4.78125 5.328125 
Q 4.78125 6.6875 5.90625 7.734375 
Q 7.03125 8.796875 8.734375 8.796875 
Q 10.015625 8.796875 10.96875 8.40625 
Q 11.921875 8.015625 14.203125 6.390625 
Q 17.875 3.859375 21.625 3.859375 
Q 27.34375 3.859375 31.65625 8.171875 
Q 35.984375 12.5 35.984375 18.703125 
Q 35.984375 24.703125 32.125 29.90625 
Q 28.265625 35.109375 21.484375 37.9375 
Q 16.15625 40.140625 6.984375 40.484375 
L 19.671875 66.21875 
z
" id="TimesNewRomanPSMT-53"/>
      </defs>
      <g transform="translate(21.224219 380.184995)scale(0.12 -0.12)">
       <use xlink:href="#TimesNewRomanPSMT-48"/>
       <use x="50" xlink:href="#TimesNewRomanPSMT-46"/>
       <use x="75" xlink:href="#TimesNewRomanPSMT-48"/>
       <use x="125" xlink:href="#TimesNewRomanPSMT-53"/>
      </g>
     </g>
    </g>
    <g id="ytick_3">
     <g id="line2d_155">
      <g>
       <use style="stroke:#000000;stroke-width:0.5;" x="45.724219" xlink:href="#me125152e9c" y="313.557489"/>
      </g>
     </g>
     <g id="line2d_156">
      <g>
       <use style="stroke:#000000;stroke-width:0.5;" x="882.724219" xlink:href="#m5a883eec9f" y="313.557489"/>
      </g>
     </g>
     <g id="text_17">
      <!-- 0.10 -->
      <defs>
       <path d="M 11.71875 59.71875 
L 27.828125 67.578125 
L 29.4375 67.578125 
L 29.4375 11.671875 
Q 29.4375 6.109375 29.90625 4.734375 
Q 30.375 3.375 31.828125 2.640625 
Q 33.296875 1.90625 37.796875 1.8125 
L 37.796875 0 
L 12.890625 0 
L 12.890625 1.8125 
Q 17.578125 1.90625 18.9375 2.609375 
Q 20.3125 3.328125 20.84375 4.515625 
Q 21.390625 5.71875 21.390625 11.671875 
L 21.390625 47.40625 
Q 21.390625 54.640625 20.90625 56.6875 
Q 20.5625 58.25 19.65625 58.984375 
Q 18.75 59.71875 17.484375 59.71875 
Q 15.671875 59.71875 12.453125 58.203125 
z
" id="TimesNewRomanPSMT-49"/>
      </defs>
      <g transform="translate(21.224219 317.723739)scale(0.12 -0.12)">
       <use xlink:href="#TimesNewRomanPSMT-48"/>
       <use x="50" xlink:href="#TimesNewRomanPSMT-46"/>
       <use x="75" xlink:href="#TimesNewRomanPSMT-49"/>
       <use x="125" xlink:href="#TimesNewRomanPSMT-48"/>
      </g>
     </g>
    </g>
    <g id="ytick_4">
     <g id="line2d_157">
      <g>
       <use style="stroke:#000000;stroke-width:0.5;" x="45.724219" xlink:href="#me125152e9c" y="251.096234"/>
      </g>
     </g>
     <g id="line2d_158">
      <g>
       <use style="stroke:#000000;stroke-width:0.5;" x="882.724219" xlink:href="#m5a883eec9f" y="251.096234"/>
      </g>
     </g>
     <g id="text_18">
      <!-- 0.15 -->
      <g transform="translate(21.224219 255.262484)scale(0.12 -0.12)">
       <use xlink:href="#TimesNewRomanPSMT-48"/>
       <use x="50" xlink:href="#TimesNewRomanPSMT-46"/>
       <use x="75" xlink:href="#TimesNewRomanPSMT-49"/>
       <use x="125" xlink:href="#TimesNewRomanPSMT-53"/>
      </g>
     </g>
    </g>
    <g id="ytick_5">
     <g id="line2d_159">
      <g>
       <use style="stroke:#000000;stroke-width:0.5;" x="45.724219" xlink:href="#me125152e9c" y="188.634978"/>
      </g>
     </g>
     <g id="line2d_160">
      <g>
       <use style="stroke:#000000;stroke-width:0.5;" x="882.724219" xlink:href="#m5a883eec9f" y="188.634978"/>
      </g>
     </g>
     <g id="text_19">
      <!-- 0.20 -->
      <defs>
       <path d="M 45.84375 12.75 
L 41.21875 0 
L 2.15625 0 
L 2.15625 1.8125 
Q 19.390625 17.53125 26.421875 27.484375 
Q 33.453125 37.453125 33.453125 45.703125 
Q 33.453125 52 29.59375 56.046875 
Q 25.734375 60.109375 20.359375 60.109375 
Q 15.484375 60.109375 11.59375 57.25 
Q 7.71875 54.390625 5.859375 48.875 
L 4.046875 48.875 
Q 5.28125 57.90625 10.328125 62.734375 
Q 15.375 67.578125 22.953125 67.578125 
Q 31 67.578125 36.390625 62.40625 
Q 41.796875 57.234375 41.796875 50.203125 
Q 41.796875 45.171875 39.453125 40.140625 
Q 35.84375 32.234375 27.734375 23.390625 
Q 15.578125 10.109375 12.546875 7.375 
L 29.828125 7.375 
Q 35.109375 7.375 37.234375 7.765625 
Q 39.359375 8.15625 41.0625 9.34375 
Q 42.78125 10.546875 44.046875 12.75 
z
" id="TimesNewRomanPSMT-50"/>
      </defs>
      <g transform="translate(21.224219 192.801228)scale(0.12 -0.12)">
       <use xlink:href="#TimesNewRomanPSMT-48"/>
       <use x="50" xlink:href="#TimesNewRomanPSMT-46"/>
       <use x="75" xlink:href="#TimesNewRomanPSMT-50"/>
       <use x="125" xlink:href="#TimesNewRomanPSMT-48"/>
      </g>
     </g>
    </g>
    <g id="ytick_6">
     <g id="line2d_161">
      <g>
       <use style="stroke:#000000;stroke-width:0.5;" x="45.724219" xlink:href="#me125152e9c" y="126.173723"/>
      </g>
     </g>
     <g id="line2d_162">
      <g>
       <use style="stroke:#000000;stroke-width:0.5;" x="882.724219" xlink:href="#m5a883eec9f" y="126.173723"/>
      </g>
     </g>
     <g id="text_20">
      <!-- 0.25 -->
      <g transform="translate(21.224219 130.339973)scale(0.12 -0.12)">
       <use xlink:href="#TimesNewRomanPSMT-48"/>
       <use x="50" xlink:href="#TimesNewRomanPSMT-46"/>
       <use x="75" xlink:href="#TimesNewRomanPSMT-50"/>
       <use x="125" xlink:href="#TimesNewRomanPSMT-53"/>
      </g>
     </g>
    </g>
    <g id="ytick_7">
     <g id="line2d_163">
      <g>
       <use style="stroke:#000000;stroke-width:0.5;" x="45.724219" xlink:href="#me125152e9c" y="63.712468"/>
      </g>
     </g>
     <g id="line2d_164">
      <g>
       <use style="stroke:#000000;stroke-width:0.5;" x="882.724219" xlink:href="#m5a883eec9f" y="63.712468"/>
      </g>
     </g>
     <g id="text_21">
      <!-- 0.30 -->
      <defs>
       <path d="M 5.078125 53.609375 
Q 7.90625 60.296875 12.21875 63.9375 
Q 16.546875 67.578125 23 67.578125 
Q 30.953125 67.578125 35.203125 62.40625 
Q 38.421875 58.546875 38.421875 54.15625 
Q 38.421875 46.921875 29.34375 39.203125 
Q 35.453125 36.8125 38.578125 32.375 
Q 41.703125 27.9375 41.703125 21.921875 
Q 41.703125 13.328125 36.234375 7.03125 
Q 29.109375 -1.171875 15.578125 -1.171875 
Q 8.890625 -1.171875 6.46875 0.484375 
Q 4.046875 2.15625 4.046875 4.046875 
Q 4.046875 5.46875 5.1875 6.546875 
Q 6.34375 7.625 7.953125 7.625 
Q 9.1875 7.625 10.453125 7.234375 
Q 11.28125 6.984375 14.203125 5.4375 
Q 17.140625 3.90625 18.265625 3.609375 
Q 20.0625 3.078125 22.125 3.078125 
Q 27.09375 3.078125 30.78125 6.9375 
Q 34.46875 10.796875 34.46875 16.0625 
Q 34.46875 19.921875 32.765625 23.578125 
Q 31.5 26.3125 29.984375 27.734375 
Q 27.875 29.6875 24.21875 31.265625 
Q 20.5625 32.859375 16.75 32.859375 
L 15.1875 32.859375 
L 15.1875 34.328125 
Q 19.046875 34.8125 22.921875 37.109375 
Q 26.8125 39.40625 28.5625 42.625 
Q 30.328125 45.84375 30.328125 49.703125 
Q 30.328125 54.734375 27.171875 57.828125 
Q 24.03125 60.9375 19.34375 60.9375 
Q 11.765625 60.9375 6.6875 52.828125 
z
" id="TimesNewRomanPSMT-51"/>
      </defs>
      <g transform="translate(21.224219 67.878718)scale(0.12 -0.12)">
       <use xlink:href="#TimesNewRomanPSMT-48"/>
       <use x="50" xlink:href="#TimesNewRomanPSMT-46"/>
       <use x="75" xlink:href="#TimesNewRomanPSMT-51"/>
       <use x="125" xlink:href="#TimesNewRomanPSMT-48"/>
      </g>
     </g>
    </g>
    <g id="ytick_8">
     <g id="line2d_165">
      <defs>
       <path d="M 0 0 
L 1.5 0 
" id="m7b5d8149f5" style="stroke:#000000;stroke-width:0.5;"/>
      </defs>
      <g>
       <use style="stroke:#000000;stroke-width:0.5;" x="45.724219" xlink:href="#m7b5d8149f5" y="425.987749"/>
      </g>
     </g>
     <g id="line2d_166">
      <defs>
       <path d="M 0 0 
L -1.5 0 
" id="m67335d035f" style="stroke:#000000;stroke-width:0.5;"/>
      </defs>
      <g>
       <use style="stroke:#000000;stroke-width:0.5;" x="882.724219" xlink:href="#m67335d035f" y="425.987749"/>
      </g>
     </g>
    </g>
    <g id="ytick_9">
     <g id="line2d_167">
      <g>
       <use style="stroke:#000000;stroke-width:0.5;" x="45.724219" xlink:href="#m7b5d8149f5" y="413.495498"/>
      </g>
     </g>
     <g id="line2d_168">
      <g>
       <use style="stroke:#000000;stroke-width:0.5;" x="882.724219" xlink:href="#m67335d035f" y="413.495498"/>
      </g>
     </g>
    </g>
    <g id="ytick_10">
     <g id="line2d_169">
      <g>
       <use style="stroke:#000000;stroke-width:0.5;" x="45.724219" xlink:href="#m7b5d8149f5" y="401.003247"/>
      </g>
     </g>
     <g id="line2d_170">
      <g>
       <use style="stroke:#000000;stroke-width:0.5;" x="882.724219" xlink:href="#m67335d035f" y="401.003247"/>
      </g>
     </g>
    </g>
    <g id="ytick_11">
     <g id="line2d_171">
      <g>
       <use style="stroke:#000000;stroke-width:0.5;" x="45.724219" xlink:href="#m7b5d8149f5" y="388.510996"/>
      </g>
     </g>
     <g id="line2d_172">
      <g>
       <use style="stroke:#000000;stroke-width:0.5;" x="882.724219" xlink:href="#m67335d035f" y="388.510996"/>
      </g>
     </g>
    </g>
    <g id="ytick_12">
     <g id="line2d_173">
      <g>
       <use style="stroke:#000000;stroke-width:0.5;" x="45.724219" xlink:href="#m7b5d8149f5" y="363.526494"/>
      </g>
     </g>
     <g id="line2d_174">
      <g>
       <use style="stroke:#000000;stroke-width:0.5;" x="882.724219" xlink:href="#m67335d035f" y="363.526494"/>
      </g>
     </g>
    </g>
    <g id="ytick_13">
     <g id="line2d_175">
      <g>
       <use style="stroke:#000000;stroke-width:0.5;" x="45.724219" xlink:href="#m7b5d8149f5" y="351.034242"/>
      </g>
     </g>
     <g id="line2d_176">
      <g>
       <use style="stroke:#000000;stroke-width:0.5;" x="882.724219" xlink:href="#m67335d035f" y="351.034242"/>
      </g>
     </g>
    </g>
    <g id="ytick_14">
     <g id="line2d_177">
      <g>
       <use style="stroke:#000000;stroke-width:0.5;" x="45.724219" xlink:href="#m7b5d8149f5" y="338.541991"/>
      </g>
     </g>
     <g id="line2d_178">
      <g>
       <use style="stroke:#000000;stroke-width:0.5;" x="882.724219" xlink:href="#m67335d035f" y="338.541991"/>
      </g>
     </g>
    </g>
    <g id="ytick_15">
     <g id="line2d_179">
      <g>
       <use style="stroke:#000000;stroke-width:0.5;" x="45.724219" xlink:href="#m7b5d8149f5" y="326.04974"/>
      </g>
     </g>
     <g id="line2d_180">
      <g>
       <use style="stroke:#000000;stroke-width:0.5;" x="882.724219" xlink:href="#m67335d035f" y="326.04974"/>
      </g>
     </g>
    </g>
    <g id="ytick_16">
     <g id="line2d_181">
      <g>
       <use style="stroke:#000000;stroke-width:0.5;" x="45.724219" xlink:href="#m7b5d8149f5" y="301.065238"/>
      </g>
     </g>
     <g id="line2d_182">
      <g>
       <use style="stroke:#000000;stroke-width:0.5;" x="882.724219" xlink:href="#m67335d035f" y="301.065238"/>
      </g>
     </g>
    </g>
    <g id="ytick_17">
     <g id="line2d_183">
      <g>
       <use style="stroke:#000000;stroke-width:0.5;" x="45.724219" xlink:href="#m7b5d8149f5" y="288.572987"/>
      </g>
     </g>
     <g id="line2d_184">
      <g>
       <use style="stroke:#000000;stroke-width:0.5;" x="882.724219" xlink:href="#m67335d035f" y="288.572987"/>
      </g>
     </g>
    </g>
    <g id="ytick_18">
     <g id="line2d_185">
      <g>
       <use style="stroke:#000000;stroke-width:0.5;" x="45.724219" xlink:href="#m7b5d8149f5" y="276.080736"/>
      </g>
     </g>
     <g id="line2d_186">
      <g>
       <use style="stroke:#000000;stroke-width:0.5;" x="882.724219" xlink:href="#m67335d035f" y="276.080736"/>
      </g>
     </g>
    </g>
    <g id="ytick_19">
     <g id="line2d_187">
      <g>
       <use style="stroke:#000000;stroke-width:0.5;" x="45.724219" xlink:href="#m7b5d8149f5" y="263.588485"/>
      </g>
     </g>
     <g id="line2d_188">
      <g>
       <use style="stroke:#000000;stroke-width:0.5;" x="882.724219" xlink:href="#m67335d035f" y="263.588485"/>
      </g>
     </g>
    </g>
    <g id="ytick_20">
     <g id="line2d_189">
      <g>
       <use style="stroke:#000000;stroke-width:0.5;" x="45.724219" xlink:href="#m7b5d8149f5" y="238.603983"/>
      </g>
     </g>
     <g id="line2d_190">
      <g>
       <use style="stroke:#000000;stroke-width:0.5;" x="882.724219" xlink:href="#m67335d035f" y="238.603983"/>
      </g>
     </g>
    </g>
    <g id="ytick_21">
     <g id="line2d_191">
      <g>
       <use style="stroke:#000000;stroke-width:0.5;" x="45.724219" xlink:href="#m7b5d8149f5" y="226.111732"/>
      </g>
     </g>
     <g id="line2d_192">
      <g>
       <use style="stroke:#000000;stroke-width:0.5;" x="882.724219" xlink:href="#m67335d035f" y="226.111732"/>
      </g>
     </g>
    </g>
    <g id="ytick_22">
     <g id="line2d_193">
      <g>
       <use style="stroke:#000000;stroke-width:0.5;" x="45.724219" xlink:href="#m7b5d8149f5" y="213.619481"/>
      </g>
     </g>
     <g id="line2d_194">
      <g>
       <use style="stroke:#000000;stroke-width:0.5;" x="882.724219" xlink:href="#m67335d035f" y="213.619481"/>
      </g>
     </g>
    </g>
    <g id="ytick_23">
     <g id="line2d_195">
      <g>
       <use style="stroke:#000000;stroke-width:0.5;" x="45.724219" xlink:href="#m7b5d8149f5" y="201.12723"/>
      </g>
     </g>
     <g id="line2d_196">
      <g>
       <use style="stroke:#000000;stroke-width:0.5;" x="882.724219" xlink:href="#m67335d035f" y="201.12723"/>
      </g>
     </g>
    </g>
    <g id="ytick_24">
     <g id="line2d_197">
      <g>
       <use style="stroke:#000000;stroke-width:0.5;" x="45.724219" xlink:href="#m7b5d8149f5" y="176.142727"/>
      </g>
     </g>
     <g id="line2d_198">
      <g>
       <use style="stroke:#000000;stroke-width:0.5;" x="882.724219" xlink:href="#m67335d035f" y="176.142727"/>
      </g>
     </g>
    </g>
    <g id="ytick_25">
     <g id="line2d_199">
      <g>
       <use style="stroke:#000000;stroke-width:0.5;" x="45.724219" xlink:href="#m7b5d8149f5" y="163.650476"/>
      </g>
     </g>
     <g id="line2d_200">
      <g>
       <use style="stroke:#000000;stroke-width:0.5;" x="882.724219" xlink:href="#m67335d035f" y="163.650476"/>
      </g>
     </g>
    </g>
    <g id="ytick_26">
     <g id="line2d_201">
      <g>
       <use style="stroke:#000000;stroke-width:0.5;" x="45.724219" xlink:href="#m7b5d8149f5" y="151.158225"/>
      </g>
     </g>
     <g id="line2d_202">
      <g>
       <use style="stroke:#000000;stroke-width:0.5;" x="882.724219" xlink:href="#m67335d035f" y="151.158225"/>
      </g>
     </g>
    </g>
    <g id="ytick_27">
     <g id="line2d_203">
      <g>
       <use style="stroke:#000000;stroke-width:0.5;" x="45.724219" xlink:href="#m7b5d8149f5" y="138.665974"/>
      </g>
     </g>
     <g id="line2d_204">
      <g>
       <use style="stroke:#000000;stroke-width:0.5;" x="882.724219" xlink:href="#m67335d035f" y="138.665974"/>
      </g>
     </g>
    </g>
    <g id="ytick_28">
     <g id="line2d_205">
      <g>
       <use style="stroke:#000000;stroke-width:0.5;" x="45.724219" xlink:href="#m7b5d8149f5" y="113.681472"/>
      </g>
     </g>
     <g id="line2d_206">
      <g>
       <use style="stroke:#000000;stroke-width:0.5;" x="882.724219" xlink:href="#m67335d035f" y="113.681472"/>
      </g>
     </g>
    </g>
    <g id="ytick_29">
     <g id="line2d_207">
      <g>
       <use style="stroke:#000000;stroke-width:0.5;" x="45.724219" xlink:href="#m7b5d8149f5" y="101.189221"/>
      </g>
     </g>
     <g id="line2d_208">
      <g>
       <use style="stroke:#000000;stroke-width:0.5;" x="882.724219" xlink:href="#m67335d035f" y="101.189221"/>
      </g>
     </g>
    </g>
    <g id="ytick_30">
     <g id="line2d_209">
      <g>
       <use style="stroke:#000000;stroke-width:0.5;" x="45.724219" xlink:href="#m7b5d8149f5" y="88.69697"/>
      </g>
     </g>
     <g id="line2d_210">
      <g>
       <use style="stroke:#000000;stroke-width:0.5;" x="882.724219" xlink:href="#m67335d035f" y="88.69697"/>
      </g>
     </g>
    </g>
    <g id="ytick_31">
     <g id="line2d_211">
      <g>
       <use style="stroke:#000000;stroke-width:0.5;" x="45.724219" xlink:href="#m7b5d8149f5" y="76.204719"/>
      </g>
     </g>
     <g id="line2d_212">
      <g>
       <use style="stroke:#000000;stroke-width:0.5;" x="882.724219" xlink:href="#m67335d035f" y="76.204719"/>
      </g>
     </g>
    </g>
    <g id="ytick_32">
     <g id="line2d_213">
      <g>
       <use style="stroke:#000000;stroke-width:0.5;" x="45.724219" xlink:href="#m7b5d8149f5" y="51.220217"/>
      </g>
     </g>
     <g id="line2d_214">
      <g>
       <use style="stroke:#000000;stroke-width:0.5;" x="882.724219" xlink:href="#m67335d035f" y="51.220217"/>
      </g>
     </g>
    </g>
    <g id="ytick_33">
     <g id="line2d_215">
      <g>
       <use style="stroke:#000000;stroke-width:0.5;" x="45.724219" xlink:href="#m7b5d8149f5" y="38.727966"/>
      </g>
     </g>
     <g id="line2d_216">
      <g>
       <use style="stroke:#000000;stroke-width:0.5;" x="882.724219" xlink:href="#m67335d035f" y="38.727966"/>
      </g>
     </g>
    </g>
    <g id="ytick_34">
     <g id="line2d_217">
      <g>
       <use style="stroke:#000000;stroke-width:0.5;" x="45.724219" xlink:href="#m7b5d8149f5" y="26.235714"/>
      </g>
     </g>
     <g id="line2d_218">
      <g>
       <use style="stroke:#000000;stroke-width:0.5;" x="882.724219" xlink:href="#m67335d035f" y="26.235714"/>
      </g>
     </g>
    </g>
    <g id="ytick_35">
     <g id="line2d_219">
      <g>
       <use style="stroke:#000000;stroke-width:0.5;" x="45.724219" xlink:href="#m7b5d8149f5" y="13.743463"/>
      </g>
     </g>
     <g id="line2d_220">
      <g>
       <use style="stroke:#000000;stroke-width:0.5;" x="882.724219" xlink:href="#m67335d035f" y="13.743463"/>
      </g>
     </g>
    </g>
    <g id="text_22">
     <!-- Attributions -->
     <defs>
      <path d="M 16.109375 59.421875 
L 16.109375 44.734375 
L 26.5625 44.734375 
L 26.5625 41.3125 
L 16.109375 41.3125 
L 16.109375 12.3125 
Q 16.109375 7.953125 17.359375 6.4375 
Q 18.609375 4.9375 20.5625 4.9375 
Q 22.171875 4.9375 23.6875 5.9375 
Q 25.203125 6.9375 26.03125 8.890625 
L 27.9375 8.890625 
Q 26.21875 4.109375 23.09375 1.6875 
Q 19.96875 -0.734375 16.65625 -0.734375 
Q 14.40625 -0.734375 12.25 0.515625 
Q 10.109375 1.765625 9.078125 4.078125 
Q 8.0625 6.390625 8.0625 11.234375 
L 8.0625 41.3125 
L 0.984375 41.3125 
L 0.984375 42.921875 
Q 3.65625 44 6.46875 46.5625 
Q 9.28125 49.125 11.46875 52.640625 
Q 12.59375 54.5 14.59375 59.421875 
z
" id="TimesNewRomanPSMT-116"/>
      <path d="M 16.21875 46.046875 
L 16.21875 35.984375 
Q 21.828125 46.046875 27.734375 46.046875 
Q 30.421875 46.046875 32.171875 44.40625 
Q 33.9375 42.78125 33.9375 40.625 
Q 33.9375 38.71875 32.65625 37.390625 
Q 31.390625 36.078125 29.640625 36.078125 
Q 27.9375 36.078125 25.8125 37.765625 
Q 23.6875 39.453125 22.65625 39.453125 
Q 21.78125 39.453125 20.75 38.484375 
Q 18.5625 36.46875 16.21875 31.890625 
L 16.21875 10.453125 
Q 16.21875 6.734375 17.140625 4.828125 
Q 17.78125 3.515625 19.390625 2.640625 
Q 21 1.765625 24.03125 1.765625 
L 24.03125 0 
L 1.125 0 
L 1.125 1.765625 
Q 4.546875 1.765625 6.203125 2.828125 
Q 7.421875 3.609375 7.90625 5.328125 
Q 8.15625 6.15625 8.15625 10.0625 
L 8.15625 27.390625 
Q 8.15625 35.203125 7.828125 36.6875 
Q 7.515625 38.1875 6.65625 38.859375 
Q 5.8125 39.546875 4.546875 39.546875 
Q 3.03125 39.546875 1.125 38.8125 
L 0.640625 40.578125 
L 14.15625 46.046875 
z
" id="TimesNewRomanPSMT-114"/>
      <path d="M 14.5 69.4375 
Q 16.546875 69.4375 17.984375 67.984375 
Q 19.4375 66.546875 19.4375 64.5 
Q 19.4375 62.453125 17.984375 60.984375 
Q 16.546875 59.515625 14.5 59.515625 
Q 12.453125 59.515625 10.984375 60.984375 
Q 9.515625 62.453125 9.515625 64.5 
Q 9.515625 66.546875 10.953125 67.984375 
Q 12.40625 69.4375 14.5 69.4375 
z
M 18.5625 46.046875 
L 18.5625 10.109375 
Q 18.5625 5.90625 19.171875 4.515625 
Q 19.78125 3.125 20.96875 2.4375 
Q 22.171875 1.765625 25.34375 1.765625 
L 25.34375 0 
L 3.609375 0 
L 3.609375 1.765625 
Q 6.890625 1.765625 8 2.390625 
Q 9.125 3.03125 9.78125 4.484375 
Q 10.453125 5.953125 10.453125 10.109375 
L 10.453125 27.34375 
Q 10.453125 34.625 10.015625 36.765625 
Q 9.671875 38.328125 8.9375 38.9375 
Q 8.203125 39.546875 6.9375 39.546875 
Q 5.5625 39.546875 3.609375 38.8125 
L 2.9375 40.578125 
L 16.40625 46.046875 
z
" id="TimesNewRomanPSMT-105"/>
      <path d="M 15.375 37.015625 
Q 21.875 46.046875 29.390625 46.046875 
Q 36.28125 46.046875 41.40625 40.15625 
Q 46.53125 34.28125 46.53125 24.078125 
Q 46.53125 12.15625 38.625 4.890625 
Q 31.84375 -1.375 23.484375 -1.375 
Q 19.578125 -1.375 15.546875 0.046875 
Q 11.53125 1.46875 7.328125 4.296875 
L 7.328125 50.640625 
Q 7.328125 58.25 6.953125 60 
Q 6.59375 61.765625 5.8125 62.390625 
Q 5.03125 63.03125 3.859375 63.03125 
Q 2.484375 63.03125 0.4375 62.25 
L -0.25 63.96875 
L 13.1875 69.4375 
L 15.375 69.4375 
z
M 15.375 33.890625 
L 15.375 7.125 
Q 17.875 4.6875 20.53125 3.4375 
Q 23.1875 2.203125 25.984375 2.203125 
Q 30.421875 2.203125 34.25 7.078125 
Q 38.09375 11.96875 38.09375 21.296875 
Q 38.09375 29.890625 34.25 34.5 
Q 30.421875 39.109375 25.53125 39.109375 
Q 22.953125 39.109375 20.359375 37.796875 
Q 18.40625 36.8125 15.375 33.890625 
z
" id="TimesNewRomanPSMT-98"/>
      <path d="M 42.328125 44.734375 
L 42.328125 17.625 
Q 42.328125 9.859375 42.6875 8.125 
Q 43.0625 6.390625 43.859375 5.703125 
Q 44.671875 5.03125 45.75 5.03125 
Q 47.265625 5.03125 49.171875 5.859375 
L 49.859375 4.15625 
L 36.46875 -1.375 
L 34.28125 -1.375 
L 34.28125 8.109375 
Q 28.515625 1.859375 25.484375 0.234375 
Q 22.46875 -1.375 19.09375 -1.375 
Q 15.328125 -1.375 12.5625 0.796875 
Q 9.8125 2.984375 8.734375 6.390625 
Q 7.671875 9.8125 7.671875 16.0625 
L 7.671875 36.03125 
Q 7.671875 39.203125 6.984375 40.421875 
Q 6.296875 41.65625 4.953125 42.3125 
Q 3.609375 42.96875 0.09375 42.921875 
L 0.09375 44.734375 
L 15.765625 44.734375 
L 15.765625 14.796875 
Q 15.765625 8.546875 17.9375 6.59375 
Q 20.125 4.640625 23.1875 4.640625 
Q 25.296875 4.640625 27.953125 5.953125 
Q 30.609375 7.28125 34.28125 10.984375 
L 34.28125 36.328125 
Q 34.28125 40.140625 32.890625 41.484375 
Q 31.5 42.828125 27.09375 42.921875 
L 27.09375 44.734375 
z
" id="TimesNewRomanPSMT-117"/>
      <path d="M 25 46.046875 
Q 35.15625 46.046875 41.3125 38.328125 
Q 46.53125 31.734375 46.53125 23.1875 
Q 46.53125 17.1875 43.640625 11.03125 
Q 40.765625 4.890625 35.71875 1.75 
Q 30.671875 -1.375 24.46875 -1.375 
Q 14.359375 -1.375 8.40625 6.6875 
Q 3.375 13.484375 3.375 21.921875 
Q 3.375 28.078125 6.421875 34.15625 
Q 9.46875 40.234375 14.453125 43.140625 
Q 19.4375 46.046875 25 46.046875 
z
M 23.484375 42.875 
Q 20.90625 42.875 18.28125 41.328125 
Q 15.671875 39.796875 14.0625 35.9375 
Q 12.453125 32.078125 12.453125 26.03125 
Q 12.453125 16.265625 16.328125 9.171875 
Q 20.21875 2.09375 26.5625 2.09375 
Q 31.296875 2.09375 34.375 6 
Q 37.453125 9.90625 37.453125 19.4375 
Q 37.453125 31.34375 32.328125 38.1875 
Q 28.859375 42.875 23.484375 42.875 
z
" id="TimesNewRomanPSMT-111"/>
      <path d="M 16.15625 36.578125 
Q 24.03125 46.046875 31.15625 46.046875 
Q 34.8125 46.046875 37.453125 44.21875 
Q 40.09375 42.390625 41.65625 38.1875 
Q 42.71875 35.25 42.71875 29.203125 
L 42.71875 10.109375 
Q 42.71875 5.859375 43.40625 4.34375 
Q 43.953125 3.125 45.140625 2.4375 
Q 46.34375 1.765625 49.5625 1.765625 
L 49.5625 0 
L 27.4375 0 
L 27.4375 1.765625 
L 28.375 1.765625 
Q 31.5 1.765625 32.734375 2.703125 
Q 33.984375 3.65625 34.46875 5.515625 
Q 34.671875 6.25 34.671875 10.109375 
L 34.671875 28.421875 
Q 34.671875 34.515625 33.078125 37.28125 
Q 31.5 40.046875 27.734375 40.046875 
Q 21.921875 40.046875 16.15625 33.6875 
L 16.15625 10.109375 
Q 16.15625 5.5625 16.703125 4.5 
Q 17.390625 3.078125 18.578125 2.421875 
Q 19.78125 1.765625 23.4375 1.765625 
L 23.4375 0 
L 1.3125 0 
L 1.3125 1.765625 
L 2.296875 1.765625 
Q 5.71875 1.765625 6.90625 3.484375 
Q 8.109375 5.21875 8.109375 10.109375 
L 8.109375 26.703125 
Q 8.109375 34.765625 7.734375 36.515625 
Q 7.375 38.28125 6.609375 38.90625 
Q 5.859375 39.546875 4.59375 39.546875 
Q 3.21875 39.546875 1.3125 38.8125 
L 0.59375 40.578125 
L 14.0625 46.046875 
L 16.15625 46.046875 
z
" id="TimesNewRomanPSMT-110"/>
      <path d="M 32.03125 46.046875 
L 32.03125 30.8125 
L 30.421875 30.8125 
Q 28.5625 37.984375 25.65625 40.578125 
Q 22.75 43.171875 18.265625 43.171875 
Q 14.84375 43.171875 12.734375 41.359375 
Q 10.640625 39.546875 10.640625 37.359375 
Q 10.640625 34.625 12.203125 32.671875 
Q 13.71875 30.671875 18.359375 28.421875 
L 25.484375 24.953125 
Q 35.40625 20.125 35.40625 12.203125 
Q 35.40625 6.109375 30.78125 2.359375 
Q 26.171875 -1.375 20.453125 -1.375 
Q 16.359375 -1.375 11.078125 0.09375 
Q 9.46875 0.59375 8.453125 0.59375 
Q 7.328125 0.59375 6.6875 -0.6875 
L 5.078125 -0.6875 
L 5.078125 15.28125 
L 6.6875 15.28125 
Q 8.0625 8.453125 11.90625 4.984375 
Q 15.765625 1.515625 20.5625 1.515625 
Q 23.921875 1.515625 26.046875 3.484375 
Q 28.171875 5.46875 28.171875 8.25 
Q 28.171875 11.625 25.796875 13.921875 
Q 23.4375 16.21875 16.359375 19.734375 
Q 9.28125 23.25 7.078125 26.078125 
Q 4.890625 28.859375 4.890625 33.109375 
Q 4.890625 38.625 8.671875 42.328125 
Q 12.453125 46.046875 18.453125 46.046875 
Q 21.09375 46.046875 24.859375 44.921875 
Q 27.34375 44.1875 28.171875 44.1875 
Q 28.953125 44.1875 29.390625 44.53125 
Q 29.828125 44.875 30.421875 46.046875 
z
" id="TimesNewRomanPSMT-115"/>
     </defs>
     <g transform="translate(14.015625 257.290781)rotate(-90)scale(0.15 -0.15)">
      <use xlink:href="#TimesNewRomanPSMT-65"/>
      <use x="72.216797" xlink:href="#TimesNewRomanPSMT-116"/>
      <use x="100" xlink:href="#TimesNewRomanPSMT-116"/>
      <use x="127.783203" xlink:href="#TimesNewRomanPSMT-114"/>
      <use x="161.083984" xlink:href="#TimesNewRomanPSMT-105"/>
      <use x="188.867188" xlink:href="#TimesNewRomanPSMT-98"/>
      <use x="238.867188" xlink:href="#TimesNewRomanPSMT-117"/>
      <use x="288.867188" xlink:href="#TimesNewRomanPSMT-116"/>
      <use x="316.650391" xlink:href="#TimesNewRomanPSMT-105"/>
      <use x="344.433594" xlink:href="#TimesNewRomanPSMT-111"/>
      <use x="394.433594" xlink:href="#TimesNewRomanPSMT-110"/>
      <use x="444.433594" xlink:href="#TimesNewRomanPSMT-115"/>
     </g>
    </g>
   </g>
   <g id="patch_59">
    <path d="M 45.724219 438.48 
L 45.724219 3.6 
" style="fill:none;stroke:#000000;stroke-linecap:square;stroke-linejoin:miter;stroke-width:0.5;"/>
   </g>
   <g id="patch_60">
    <path d="M 882.724219 438.48 
L 882.724219 3.6 
" style="fill:none;stroke:#000000;stroke-linecap:square;stroke-linejoin:miter;stroke-width:0.5;"/>
   </g>
   <g id="patch_61">
    <path d="M 45.724219 438.48 
L 882.724219 438.48 
" style="fill:none;stroke:#000000;stroke-linecap:square;stroke-linejoin:miter;stroke-width:0.5;"/>
   </g>
   <g id="patch_62">
    <path d="M 45.724219 3.6 
L 882.724219 3.6 
" style="fill:none;stroke:#000000;stroke-linecap:square;stroke-linejoin:miter;stroke-width:0.5;"/>
   </g>
   <g id="legend_1">
    <g id="patch_63">
     <path d="M 56.224219 58.017187 
L 250.382812 58.017187 
Q 253.382812 58.017187 253.382812 55.017187 
L 253.382812 14.1 
Q 253.382812 11.1 250.382812 11.1 
L 56.224219 11.1 
Q 53.224219 11.1 53.224219 14.1 
L 53.224219 55.017187 
Q 53.224219 58.017187 56.224219 58.017187 
z
" style="fill:#ffffff;opacity:0.8;stroke:#cccccc;stroke-linejoin:miter;"/>
    </g>
    <g id="patch_64">
     <path d="M 59.224219 27.6 
L 89.224219 27.6 
L 89.224219 17.1 
L 59.224219 17.1 
z
" style="fill:#0c5da5;"/>
    </g>
    <g id="text_23">
     <!-- BTC -->
     <g transform="translate(101.224219 27.6)scale(0.15 -0.15)">
      <use xlink:href="#TimesNewRomanPSMT-66"/>
      <use x="66.699219" xlink:href="#TimesNewRomanPSMT-84"/>
      <use x="127.783203" xlink:href="#TimesNewRomanPSMT-67"/>
     </g>
    </g>
    <g id="patch_65">
     <path d="M 59.224219 48.808594 
L 89.224219 48.808594 
L 89.224219 38.308594 
L 59.224219 38.308594 
z
" style="fill:#00b945;"/>
    </g>
    <g id="text_24">
     <!-- DOGE -->
     <g transform="translate(101.224219 48.808594)scale(0.15 -0.15)">
      <use xlink:href="#TimesNewRomanPSMT-68"/>
      <use x="72.216797" xlink:href="#TimesNewRomanPSMT-79"/>
      <use x="144.433594" xlink:href="#TimesNewRomanPSMT-71"/>
      <use x="216.650391" xlink:href="#TimesNewRomanPSMT-69"/>
     </g>
    </g>
    <g id="patch_66">
     <path d="M 172.884375 27.6 
L 202.884375 27.6 
L 202.884375 17.1 
L 172.884375 17.1 
z
" style="fill:#ff9500;"/>
    </g>
    <g id="text_25">
     <!-- EUR -->
     <g transform="translate(214.884375 27.6)scale(0.15 -0.15)">
      <use xlink:href="#TimesNewRomanPSMT-69"/>
      <use x="61.083984" xlink:href="#TimesNewRomanPSMT-85"/>
      <use x="133.300781" xlink:href="#TimesNewRomanPSMT-82"/>
     </g>
    </g>
    <g id="patch_67">
     <path d="M 172.884375 48.808594 
L 202.884375 48.808594 
L 202.884375 38.308594 
L 172.884375 38.308594 
z
" style="fill:#ff2c00;"/>
    </g>
    <g id="text_26">
     <!-- AUD -->
     <g transform="translate(214.884375 48.808594)scale(0.15 -0.15)">
      <use xlink:href="#TimesNewRomanPSMT-65"/>
      <use x="72.216797" xlink:href="#TimesNewRomanPSMT-85"/>
      <use x="144.433594" xlink:href="#TimesNewRomanPSMT-68"/>
     </g>
    </g>
   </g>
  </g>
 </g>
 <defs>
  <clipPath id="p3de3031d1c">
   <rect height="434.88" width="837" x="45.724219" y="3.6"/>
  </clipPath>
 </defs>
</svg>
